<?xml version="1.0" encoding="utf-8"?>
<!-- Generator: Adobe Illustrator 26.0.3, SVG Export Plug-In . SVG Version: 6.00 Build 0)  -->
<svg version="1.1" id="Layer_1" xmlns="http://www.w3.org/2000/svg" xmlns:xlink="http://www.w3.org/1999/xlink" x="0px" y="0px"
	 viewBox="0 0 628 80" style="enable-background:new 0 0 628 80;" xml:space="preserve">
<style type="text/css">
	.st0{fill:#D6AB00;}
	.st1{fill:#F1F2F2;}
</style>
<path class="st0" d="M72.5,2.5L72.5,2.5H3.8l11,6.4L51.4,30l21.1,36.5l6.4,11v-75H72.5z M72.5,34.8L56,25.3L46.5,8.9h25.9V34.8z
	 M27.6,8.9h11.7L45.1,19L27.6,8.9z M62.4,36.3l10.1,5.8v11.6L62.4,36.3z"/>
<rect x="391.8" y="11.5" class="st0" width="1.3" height="40.1"/>
<path class="st1" d="M436.8,17.3c0,1.5-0.2,2.9-0.7,4s-1.2,2.1-2,2.9c-0.9,0.8-2,1.3-3.2,1.7c-1.3,0.4-2.7,0.6-4.3,0.6
	c-0.7,0-1.6,0-2.5-0.1c-1-0.1-1.9-0.2-2.8-0.4V8.6c0.9-0.2,1.9-0.3,2.9-0.3c1-0.1,1.9-0.1,2.6-0.1c1.5,0,2.9,0.2,4.2,0.5
	c1.2,0.3,2.3,0.9,3.2,1.6c0.9,0.7,1.6,1.7,2.1,2.8S436.8,15.7,436.8,17.3z M425.2,22.9c0.2,0,0.4,0,0.7,0c0.2,0,0.5,0,0.9,0
	c2,0,3.5-0.5,4.5-1.5c1-1,1.5-2.4,1.5-4.2c0-1.9-0.5-3.3-1.4-4.3c-0.9-1-2.4-1.4-4.4-1.4c-0.3,0-0.6,0-0.8,0c-0.3,0-0.6,0-0.8,0.1
	V22.9z"/>
<path class="st1" d="M443.4,8.7c0,0.7-0.2,1.3-0.7,1.7c-0.5,0.4-1,0.6-1.6,0.6c-0.6,0-1.2-0.2-1.6-0.6c-0.5-0.4-0.7-1-0.7-1.7
	c0-0.7,0.2-1.3,0.7-1.7c0.5-0.4,1-0.6,1.6-0.6c0.6,0,1.2,0.2,1.6,0.6C443.2,7.5,443.4,8,443.4,8.7z M443,26.2h-3.8V12.7h3.8V26.2z"
	/>
<path class="st1" d="M457.5,24.5c0,2.2-0.6,3.9-1.7,4.9c-1.1,1.1-2.9,1.6-5.2,1.6c-0.8,0-1.6-0.1-2.5-0.2c-0.8-0.1-1.6-0.3-2.3-0.6
	l0.7-3.2c0.6,0.2,1.2,0.4,1.9,0.6c0.7,0.1,1.4,0.2,2.3,0.2c1.1,0,1.9-0.2,2.3-0.7c0.5-0.5,0.7-1.1,0.7-1.9v-0.5
	c-0.4,0.2-0.8,0.3-1.3,0.4c-0.4,0.1-0.9,0.1-1.4,0.1c-1.9,0-3.3-0.6-4.3-1.7c-1-1.1-1.5-2.7-1.5-4.7c0-1,0.2-1.9,0.5-2.7
	c0.3-0.8,0.8-1.5,1.4-2.1c0.6-0.6,1.3-1,2.2-1.4c0.9-0.3,1.8-0.5,2.9-0.5c0.5,0,0.9,0,1.4,0.1c0.5,0,1,0.1,1.5,0.2
	c0.5,0.1,0.9,0.2,1.4,0.2c0.4,0.1,0.8,0.2,1.2,0.3V24.5z M449,19c0,2.1,0.9,3.2,2.6,3.2c0.4,0,0.8-0.1,1.1-0.2s0.6-0.2,0.9-0.4v-6.1
	c-0.2,0-0.4-0.1-0.7-0.1c-0.3,0-0.6,0-0.9,0c-1,0-1.8,0.3-2.3,1C449.3,17.1,449,18,449,19z"/>
<path class="st1" d="M464.5,8.7c0,0.7-0.2,1.3-0.7,1.7c-0.5,0.4-1,0.6-1.6,0.6s-1.2-0.2-1.6-0.6c-0.5-0.4-0.7-1-0.7-1.7
	c0-0.7,0.2-1.3,0.7-1.7c0.5-0.4,1-0.6,1.6-0.6s1.2,0.2,1.6,0.6C464.3,7.5,464.5,8,464.5,8.7z M464.2,26.2h-3.8V12.7h3.8V26.2z"/>
<path class="st1" d="M466.9,9.3l3.8-0.6v4h4.6v3.2h-4.6v4.8c0,0.8,0.1,1.5,0.4,1.9c0.3,0.5,0.9,0.7,1.7,0.7c0.4,0,0.8,0,1.3-0.1
	c0.4-0.1,0.8-0.2,1.2-0.3l0.5,3c-0.5,0.2-1,0.4-1.5,0.5c-0.6,0.1-1.3,0.2-2.1,0.2c-1,0-1.9-0.1-2.6-0.4c-0.7-0.3-1.2-0.7-1.6-1.2
	c-0.4-0.5-0.7-1.1-0.9-1.8c-0.2-0.7-0.2-1.5-0.2-2.4V9.3z"/>
<path class="st1" d="M482.6,12.3c1.1,0,2.1,0.1,2.8,0.4c0.8,0.3,1.4,0.6,1.8,1.1c0.5,0.5,0.8,1.1,1,1.8c0.2,0.7,0.3,1.5,0.3,2.3v8
	c-0.6,0.1-1.3,0.3-2.3,0.4c-1,0.2-2.2,0.2-3.6,0.2c-0.9,0-1.7-0.1-2.4-0.2c-0.7-0.2-1.3-0.4-1.8-0.8c-0.5-0.4-0.9-0.8-1.2-1.4
	c-0.3-0.6-0.4-1.3-0.4-2.1c0-0.8,0.2-1.5,0.5-2c0.3-0.5,0.7-1,1.3-1.3c0.5-0.3,1.1-0.6,1.8-0.7c0.7-0.1,1.4-0.2,2.1-0.2
	c0.5,0,0.9,0,1.3,0.1c0.4,0,0.7,0.1,0.9,0.2v-0.4c0-0.7-0.2-1.2-0.6-1.6c-0.4-0.4-1.1-0.6-2.1-0.6c-0.7,0-1.3,0-1.9,0.1
	c-0.6,0.1-1.2,0.2-1.6,0.4l-0.5-3.1c0.2-0.1,0.5-0.1,0.8-0.2s0.7-0.1,1.1-0.2c0.4-0.1,0.8-0.1,1.2-0.2
	C481.7,12.3,482.2,12.3,482.6,12.3z M482.9,23.5c0.4,0,0.7,0,1.1,0c0.3,0,0.6,0,0.8-0.1v-2.9c-0.2,0-0.4-0.1-0.7-0.1
	c-0.3,0-0.6-0.1-0.8-0.1c-0.4,0-0.7,0-1,0.1c-0.3,0-0.6,0.1-0.8,0.2c-0.2,0.1-0.4,0.3-0.6,0.5c-0.1,0.2-0.2,0.5-0.2,0.8
	c0,0.6,0.2,1,0.6,1.2C481.7,23.4,482.2,23.5,482.9,23.5z"/>
<path class="st1" d="M496.6,26.5c-1.1,0-2-0.1-2.7-0.4c-0.7-0.2-1.2-0.5-1.6-0.9c-0.4-0.4-0.7-0.9-0.8-1.5c-0.1-0.6-0.2-1.2-0.2-1.9
	V6.8l3.8-0.6V21c0,0.3,0,0.7,0.1,0.9c0.1,0.3,0.2,0.5,0.3,0.7c0.1,0.2,0.4,0.3,0.6,0.5c0.3,0.1,0.6,0.2,1.1,0.2L496.6,26.5z"/>
<path class="st1" d="M509.7,8.1c2.7,0,4.7,0.5,6.2,1.4c1.4,1,2.1,2.4,2.1,4.4c0,1.3-0.3,2.3-0.9,3.1c-0.6,0.8-1.4,1.4-2.5,1.8
	c0.4,0.4,0.7,1,1.1,1.5c0.4,0.6,0.8,1.2,1.2,1.8s0.8,1.3,1.1,2c0.4,0.7,0.7,1.3,1,2h-4.5c-0.3-0.6-0.7-1.2-1-1.8
	c-0.3-0.6-0.7-1.2-1-1.8c-0.4-0.6-0.7-1.1-1-1.6c-0.3-0.5-0.7-1-1-1.4h-2v6.5h-4V8.6c0.9-0.2,1.8-0.3,2.7-0.4
	C508.2,8.2,509,8.1,509.7,8.1z M510,11.6c-0.3,0-0.6,0-0.8,0c-0.2,0-0.5,0-0.7,0.1v4.8h1.1c1.5,0,2.6-0.2,3.2-0.6c0.7-0.4,1-1,1-1.9
	c0-0.9-0.3-1.5-1-1.9C512.2,11.8,511.3,11.6,510,11.6z"/>
<path class="st1" d="M519.8,19.5c0-1.2,0.2-2.3,0.6-3.2c0.4-0.9,0.9-1.7,1.5-2.3c0.6-0.6,1.3-1.1,2.1-1.4c0.8-0.3,1.6-0.5,2.4-0.5
	c1.9,0,3.4,0.6,4.6,1.8c1.1,1.2,1.7,2.9,1.7,5.2c0,0.2,0,0.5,0,0.7c0,0.3,0,0.5-0.1,0.7h-8.7c0.1,0.8,0.5,1.4,1.1,1.9
	c0.7,0.5,1.5,0.7,2.6,0.7c0.7,0,1.4-0.1,2.1-0.2c0.7-0.1,1.2-0.3,1.7-0.5l0.5,3.1c-0.2,0.1-0.5,0.2-0.8,0.3
	c-0.3,0.1-0.7,0.2-1.1,0.3c-0.4,0.1-0.9,0.1-1.4,0.2c-0.5,0.1-1,0.1-1.4,0.1c-1.2,0-2.3-0.2-3.2-0.5c-0.9-0.4-1.6-0.9-2.2-1.5
	c-0.6-0.6-1-1.4-1.3-2.2C520,21.5,519.8,20.5,519.8,19.5z M528.8,18.1c0-0.3-0.1-0.6-0.2-1c-0.1-0.3-0.2-0.6-0.4-0.8
	c-0.2-0.2-0.4-0.4-0.7-0.6c-0.3-0.2-0.7-0.2-1.1-0.2c-0.4,0-0.8,0.1-1.1,0.2c-0.3,0.1-0.6,0.3-0.8,0.6c-0.2,0.2-0.4,0.5-0.5,0.8
	c-0.1,0.3-0.2,0.6-0.2,1H528.8z"/>
<path class="st1" d="M538.6,23.5c0.7,0,1.2-0.1,1.5-0.2c0.3-0.1,0.4-0.4,0.4-0.8c0-0.3-0.2-0.6-0.6-0.8s-1-0.5-1.7-0.8
	c-0.6-0.2-1.1-0.5-1.6-0.7c-0.5-0.2-0.9-0.5-1.2-0.9c-0.3-0.3-0.6-0.7-0.8-1.2c-0.2-0.5-0.3-1-0.3-1.7c0-1.3,0.5-2.3,1.4-3
	c0.9-0.7,2.2-1.1,3.9-1.1c0.8,0,1.6,0.1,2.4,0.2c0.8,0.1,1.4,0.3,1.8,0.5l-0.7,3c-0.4-0.2-0.9-0.3-1.5-0.4c-0.5-0.1-1.1-0.2-1.8-0.2
	c-1.2,0-1.8,0.3-1.8,1c0,0.2,0,0.3,0.1,0.4c0.1,0.1,0.2,0.2,0.3,0.3c0.2,0.1,0.4,0.2,0.6,0.4c0.3,0.1,0.6,0.3,1,0.4
	c0.8,0.3,1.5,0.6,2.1,0.9c0.6,0.3,1,0.6,1.3,1c0.3,0.4,0.5,0.7,0.7,1.2s0.2,0.9,0.2,1.5c0,1.3-0.5,2.3-1.5,3c-1,0.7-2.4,1-4.3,1
	c-1.2,0-2.2-0.1-3-0.3c-0.8-0.2-1.4-0.4-1.7-0.5l0.6-3.1c0.7,0.3,1.3,0.5,2,0.6C537.3,23.4,538,23.5,538.6,23.5z"/>
<path class="st1" d="M545.8,19.5c0-1.2,0.2-2.3,0.6-3.2c0.4-0.9,0.9-1.7,1.5-2.3c0.6-0.6,1.3-1.1,2.1-1.4c0.8-0.3,1.6-0.5,2.4-0.5
	c1.9,0,3.4,0.6,4.6,1.8c1.1,1.2,1.7,2.9,1.7,5.2c0,0.2,0,0.5,0,0.7c0,0.3,0,0.5-0.1,0.7h-8.7c0.1,0.8,0.5,1.4,1.1,1.9
	c0.7,0.5,1.5,0.7,2.6,0.7c0.7,0,1.4-0.1,2.1-0.2c0.7-0.1,1.2-0.3,1.7-0.5l0.5,3.1c-0.2,0.1-0.5,0.2-0.8,0.3
	c-0.3,0.1-0.7,0.2-1.1,0.3c-0.4,0.1-0.9,0.1-1.4,0.2s-1,0.1-1.4,0.1c-1.2,0-2.3-0.2-3.2-0.5c-0.9-0.4-1.6-0.9-2.2-1.5
	c-0.6-0.6-1-1.4-1.3-2.2C545.9,21.5,545.8,20.5,545.8,19.5z M554.8,18.1c0-0.3-0.1-0.6-0.2-1c-0.1-0.3-0.2-0.6-0.4-0.8
	c-0.2-0.2-0.4-0.4-0.7-0.6c-0.3-0.2-0.7-0.2-1.1-0.2c-0.4,0-0.8,0.1-1.1,0.2c-0.3,0.1-0.6,0.3-0.8,0.6c-0.2,0.2-0.4,0.5-0.5,0.8
	c-0.1,0.3-0.2,0.6-0.2,1H554.8z"/>
<path class="st1" d="M565.6,12.3c1.1,0,2.1,0.1,2.8,0.4c0.8,0.3,1.4,0.6,1.8,1.1c0.5,0.5,0.8,1.1,1,1.8c0.2,0.7,0.3,1.5,0.3,2.3v8
	c-0.5,0.1-1.3,0.3-2.3,0.4c-1,0.2-2.2,0.2-3.6,0.2c-0.9,0-1.7-0.1-2.4-0.2c-0.7-0.2-1.3-0.4-1.8-0.8c-0.5-0.4-0.9-0.8-1.2-1.4
	c-0.3-0.6-0.4-1.3-0.4-2.1c0-0.8,0.2-1.5,0.5-2c0.3-0.5,0.7-1,1.3-1.3c0.5-0.3,1.1-0.6,1.8-0.7c0.7-0.1,1.4-0.2,2.1-0.2
	c0.5,0,0.9,0,1.3,0.1c0.4,0,0.7,0.1,0.9,0.2v-0.4c0-0.7-0.2-1.2-0.6-1.6c-0.4-0.4-1.1-0.6-2.1-0.6c-0.7,0-1.3,0-1.9,0.1
	c-0.6,0.1-1.2,0.2-1.6,0.4l-0.5-3.1c0.2-0.1,0.5-0.1,0.8-0.2c0.3-0.1,0.7-0.1,1.1-0.2c0.4-0.1,0.8-0.1,1.2-0.2
	C564.7,12.3,565.1,12.3,565.6,12.3z M565.9,23.5c0.4,0,0.7,0,1.1,0c0.3,0,0.6,0,0.8-0.1v-2.9c-0.2,0-0.4-0.1-0.7-0.1
	c-0.3,0-0.6-0.1-0.9-0.1c-0.4,0-0.7,0-1,0.1c-0.3,0-0.6,0.1-0.8,0.2c-0.2,0.1-0.4,0.3-0.6,0.5c-0.1,0.2-0.2,0.5-0.2,0.8
	c0,0.6,0.2,1,0.6,1.2S565.2,23.5,565.9,23.5z"/>
<path class="st1" d="M582.4,16.1c-0.3-0.1-0.7-0.2-1.2-0.3c-0.5-0.1-1-0.1-1.5-0.1c-0.2,0-0.5,0-0.9,0.1c-0.3,0-0.6,0.1-0.8,0.1
	v10.4h-3.8V13.4c0.7-0.2,1.5-0.5,2.4-0.7c0.9-0.2,2-0.3,3.1-0.3c0.2,0,0.5,0,0.7,0c0.3,0,0.6,0.1,0.9,0.1c0.3,0,0.6,0.1,0.9,0.2
	c0.3,0.1,0.5,0.1,0.7,0.2L582.4,16.1z"/>
<path class="st1" d="M583.6,19.4c0-1,0.2-1.9,0.5-2.8c0.3-0.9,0.8-1.6,1.4-2.3c0.6-0.6,1.3-1.2,2.2-1.5s1.8-0.6,2.9-0.6
	c0.7,0,1.4,0.1,2,0.2c0.6,0.1,1.2,0.3,1.8,0.6l-0.8,3.1c-0.4-0.1-0.8-0.3-1.2-0.4c-0.4-0.1-0.9-0.2-1.4-0.2c-1.1,0-2,0.4-2.5,1.1
	c-0.6,0.7-0.8,1.6-0.8,2.8c0,1.2,0.3,2.2,0.8,2.8c0.5,0.7,1.4,1,2.7,1c0.5,0,1,0,1.5-0.1c0.5-0.1,1-0.2,1.5-0.4l0.5,3.1
	c-0.4,0.2-1,0.4-1.7,0.5c-0.7,0.1-1.4,0.2-2.2,0.2c-1.2,0-2.3-0.2-3.2-0.6c-0.9-0.4-1.6-0.9-2.2-1.5c-0.6-0.6-1-1.4-1.3-2.3
	C583.7,21.4,583.6,20.4,583.6,19.4z"/>
<path class="st1" d="M596.3,26.2V6.8l3.8-0.6v6.5c0.3-0.1,0.6-0.2,1-0.2c0.4-0.1,0.8-0.1,1.2-0.1c1.1,0,2,0.2,2.7,0.5
	c0.7,0.3,1.3,0.7,1.8,1.3c0.4,0.5,0.7,1.2,0.9,2c0.2,0.8,0.3,1.6,0.3,2.5v7.7h-3.8V19c0-1.2-0.2-2.1-0.5-2.6
	c-0.3-0.5-0.9-0.8-1.8-0.8c-0.3,0-0.7,0-1,0.1c-0.3,0.1-0.6,0.1-0.8,0.2v10.3H596.3z"/>
<path class="st1" d="M433,53.2c-0.2-0.6-0.4-1.3-0.6-1.9c-0.2-0.7-0.5-1.3-0.7-2h-7c-0.2,0.7-0.5,1.3-0.7,2
	c-0.2,0.7-0.4,1.3-0.6,1.9h-4.2c0.7-1.9,1.3-3.7,1.9-5.3c0.6-1.6,1.2-3.2,1.8-4.6c0.6-1.4,1.1-2.8,1.7-4.1c0.6-1.3,1.1-2.6,1.7-3.8
	h3.8c0.6,1.2,1.2,2.5,1.7,3.8c0.6,1.3,1.1,2.7,1.7,4.1c0.6,1.4,1.2,3,1.8,4.6c0.6,1.6,1.2,3.4,1.9,5.3H433z M428.2,39.4
	c-0.1,0.3-0.2,0.6-0.4,1.1c-0.2,0.4-0.4,1-0.6,1.5c-0.2,0.6-0.5,1.2-0.7,1.9c-0.3,0.7-0.5,1.4-0.8,2.2h5.1c-0.3-0.8-0.5-1.5-0.8-2.2
	c-0.3-0.7-0.5-1.4-0.7-1.9c-0.2-0.6-0.4-1.1-0.6-1.5C428.4,40,428.3,39.6,428.2,39.4z"/>
<path class="st1" d="M443.8,53.4c-1.1,0-2-0.1-2.7-0.4c-0.7-0.2-1.2-0.5-1.6-0.9c-0.4-0.4-0.7-0.9-0.8-1.5c-0.1-0.6-0.2-1.2-0.2-1.9
	V33.8l3.8-0.6V48c0,0.3,0,0.7,0.1,0.9c0.1,0.3,0.2,0.5,0.3,0.7c0.1,0.2,0.4,0.3,0.6,0.5c0.3,0.1,0.6,0.2,1.1,0.2L443.8,53.4z"/>
<path class="st1" d="M451.1,53.4c-1.1,0-2-0.1-2.7-0.4c-0.7-0.2-1.2-0.5-1.6-0.9c-0.4-0.4-0.7-0.9-0.8-1.5c-0.1-0.6-0.2-1.2-0.2-1.9
	V33.8l3.8-0.6V48c0,0.3,0,0.7,0.1,0.9c0.1,0.3,0.2,0.5,0.3,0.7c0.1,0.2,0.4,0.3,0.6,0.5c0.3,0.1,0.6,0.2,1.1,0.2L451.1,53.4z"/>
<path class="st1" d="M457.4,35.7c0,0.7-0.2,1.3-0.7,1.7c-0.5,0.4-1,0.6-1.6,0.6s-1.2-0.2-1.6-0.6c-0.5-0.4-0.7-1-0.7-1.7
	c0-0.7,0.2-1.3,0.7-1.7c0.5-0.4,1-0.6,1.6-0.6s1.2,0.2,1.6,0.6C457.1,34.5,457.4,35,457.4,35.7z M457,53.2h-3.8V39.6h3.8V53.2z"/>
<path class="st1" d="M464.7,39.3c1.1,0,2.1,0.1,2.8,0.4c0.8,0.3,1.4,0.6,1.8,1.1c0.5,0.5,0.8,1.1,1,1.8c0.2,0.7,0.3,1.5,0.3,2.3v8
	c-0.5,0.1-1.3,0.3-2.3,0.4c-1,0.2-2.2,0.2-3.6,0.2c-0.9,0-1.7-0.1-2.4-0.2c-0.7-0.2-1.3-0.4-1.8-0.8c-0.5-0.4-0.9-0.8-1.2-1.4
	c-0.3-0.6-0.4-1.3-0.4-2.1c0-0.8,0.2-1.5,0.5-2c0.3-0.5,0.7-1,1.3-1.3c0.5-0.3,1.1-0.6,1.8-0.7c0.7-0.1,1.4-0.2,2.1-0.2
	c0.5,0,0.9,0,1.3,0.1c0.4,0,0.7,0.1,0.9,0.2v-0.4c0-0.7-0.2-1.2-0.6-1.6c-0.4-0.4-1.1-0.6-2.1-0.6c-0.7,0-1.3,0-1.9,0.1
	c-0.6,0.1-1.2,0.2-1.6,0.4l-0.5-3.1c0.2-0.1,0.5-0.1,0.8-0.2c0.3-0.1,0.7-0.1,1.1-0.2c0.4-0.1,0.8-0.1,1.2-0.2
	C463.8,39.3,464.3,39.3,464.7,39.3z M465,50.5c0.4,0,0.7,0,1.1,0c0.3,0,0.6,0,0.8-0.1v-2.9c-0.2,0-0.4-0.1-0.7-0.1
	c-0.3,0-0.6-0.1-0.8-0.1c-0.4,0-0.7,0-1,0.1c-0.3,0-0.6,0.1-0.8,0.2c-0.2,0.1-0.4,0.3-0.6,0.5c-0.1,0.2-0.2,0.5-0.2,0.8
	c0,0.6,0.2,1,0.6,1.2C463.8,50.4,464.3,50.5,465,50.5z"/>
<path class="st1" d="M473.4,40.1c0.7-0.2,1.5-0.4,2.5-0.5c1-0.2,2.1-0.2,3.2-0.2c1.2,0,2.1,0.2,2.9,0.5c0.8,0.3,1.4,0.7,1.8,1.3
	c0.4,0.5,0.8,1.2,1,2c0.2,0.8,0.3,1.6,0.3,2.5v7.7h-3.8V46c0-1.2-0.2-2.1-0.5-2.6c-0.3-0.5-0.9-0.8-1.8-0.8c-0.3,0-0.6,0-0.9,0
	c-0.3,0-0.6,0.1-0.8,0.1v10.5h-3.8V40.1z"/>
<path class="st1" d="M487.1,46.4c0-1,0.2-1.9,0.5-2.8c0.3-0.9,0.8-1.6,1.4-2.3c0.6-0.6,1.3-1.2,2.2-1.5s1.8-0.6,2.9-0.6
	c0.7,0,1.4,0.1,2,0.2c0.6,0.1,1.2,0.3,1.8,0.6l-0.8,3.1c-0.4-0.1-0.8-0.3-1.2-0.4c-0.4-0.1-0.9-0.2-1.4-0.2c-1.1,0-2,0.4-2.5,1.1
	c-0.6,0.7-0.8,1.6-0.8,2.8c0,1.2,0.3,2.2,0.8,2.8s1.4,1,2.7,1c0.5,0,1,0,1.5-0.1c0.5-0.1,1-0.2,1.5-0.4l0.5,3.1
	c-0.4,0.2-1,0.4-1.7,0.5c-0.7,0.1-1.4,0.2-2.2,0.2c-1.2,0-2.3-0.2-3.2-0.6c-0.9-0.4-1.6-0.9-2.2-1.5c-0.6-0.6-1-1.4-1.3-2.3
	C487.3,48.4,487.1,47.4,487.1,46.4z"/>
<path class="st1" d="M499,46.5c0-1.2,0.2-2.3,0.6-3.2c0.4-0.9,0.9-1.7,1.5-2.3c0.6-0.6,1.3-1.1,2.1-1.4c0.8-0.3,1.6-0.5,2.4-0.5
	c1.9,0,3.4,0.6,4.6,1.8c1.1,1.2,1.7,2.9,1.7,5.2c0,0.2,0,0.5,0,0.7c0,0.3,0,0.5-0.1,0.7H503c0.1,0.8,0.5,1.4,1.1,1.9
	c0.7,0.5,1.5,0.7,2.6,0.7c0.7,0,1.4-0.1,2.1-0.2c0.7-0.1,1.2-0.3,1.7-0.5l0.5,3.1c-0.2,0.1-0.5,0.2-0.8,0.3s-0.7,0.2-1.1,0.3
	c-0.4,0.1-0.9,0.1-1.4,0.2c-0.5,0.1-1,0.1-1.4,0.1c-1.2,0-2.3-0.2-3.2-0.5c-0.9-0.4-1.6-0.9-2.2-1.5c-0.6-0.6-1-1.4-1.3-2.2
	C499.2,48.4,499,47.5,499,46.5z M508,45c0-0.3-0.1-0.6-0.2-1c-0.1-0.3-0.2-0.6-0.4-0.8c-0.2-0.2-0.4-0.4-0.7-0.6
	c-0.3-0.2-0.7-0.2-1.1-0.2c-0.4,0-0.8,0.1-1.1,0.2c-0.3,0.1-0.6,0.3-0.8,0.6c-0.2,0.2-0.4,0.5-0.5,0.8c-0.1,0.3-0.2,0.6-0.2,1H508z"
	/>
<path class="st1" d="M531.1,46.5c0,1-0.2,2-0.5,2.9s-0.7,1.6-1.3,2.2c-0.5,0.6-1.2,1.1-1.9,1.4c-0.7,0.3-1.6,0.5-2.4,0.5
	c-0.9,0-1.7-0.2-2.4-0.5c-0.7-0.3-1.4-0.8-1.9-1.4c-0.5-0.6-1-1.3-1.3-2.2c-0.3-0.9-0.5-1.8-0.5-2.9c0-1,0.2-2,0.5-2.9
	c0.3-0.9,0.7-1.6,1.3-2.2c0.5-0.6,1.2-1.1,1.9-1.4c0.7-0.3,1.6-0.5,2.4-0.5c0.9,0,1.7,0.2,2.4,0.5c0.7,0.3,1.4,0.8,1.9,1.4
	c0.5,0.6,1,1.3,1.3,2.2C530.9,44.5,531.1,45.5,531.1,46.5z M529.3,46.5c0-1.7-0.4-3-1.2-4c-0.8-1-1.8-1.5-3.1-1.5
	c-1.3,0-2.4,0.5-3.1,1.5c-0.8,1-1.2,2.3-1.2,4c0,1.7,0.4,3,1.2,4c0.8,1,1.8,1.5,3.1,1.5c1.3,0,2.4-0.5,3.1-1.5
	C528.9,49.5,529.3,48.2,529.3,46.5z"/>
<path class="st1" d="M538.7,33.2c0.7,0,1.3,0.1,1.8,0.2c0.5,0.1,0.8,0.2,0.9,0.3l-0.3,1.4c-0.2-0.1-0.5-0.2-0.8-0.3
	c-0.4-0.1-0.8-0.1-1.4-0.1c-1.2,0-2,0.3-2.5,0.9c-0.5,0.6-0.8,1.6-0.8,2.9v1.4h5.4v1.4h-5.4v11.9h-1.7V38.4c0-1.7,0.4-3,1.2-3.9
	C535.8,33.6,537.1,33.2,538.7,33.2z"/>
<path class="st1" d="M555.6,53.6c-1.2,0-2.2-0.2-3.2-0.6c-1-0.4-1.8-1-2.6-1.8c-0.7-0.8-1.3-1.8-1.7-2.9c-0.4-1.2-0.6-2.5-0.6-4
	c0-1.5,0.2-2.8,0.7-4c0.5-1.2,1.1-2.1,1.8-2.9c0.8-0.8,1.6-1.4,2.6-1.8c1-0.4,2-0.6,3.1-0.6c0.7,0,1.3,0,1.8,0.1
	c0.5,0.1,1,0.2,1.4,0.3c0.4,0.1,0.8,0.3,1.1,0.4c0.3,0.1,0.5,0.2,0.7,0.3l-0.6,1.5c-0.4-0.3-1-0.5-1.6-0.8c-0.7-0.2-1.5-0.4-2.5-0.4
	c-1.1,0-2.1,0.2-2.9,0.6c-0.8,0.4-1.5,0.9-2.1,1.6c-0.6,0.7-1,1.5-1.3,2.4c-0.3,0.9-0.4,2-0.4,3.1c0,1.2,0.1,2.3,0.4,3.2
	c0.3,1,0.7,1.8,1.2,2.4s1.2,1.2,2,1.5c0.8,0.4,1.7,0.5,2.7,0.5c1.1,0,2.1-0.1,2.8-0.3c0.8-0.2,1.3-0.4,1.7-0.7l0.5,1.5
	c-0.1,0.1-0.3,0.2-0.6,0.3s-0.7,0.2-1.1,0.3c-0.4,0.1-1,0.2-1.5,0.3C557,53.5,556.3,53.6,555.6,53.6z"/>
<path class="st1" d="M567.3,39.6c0.9,0,1.6,0.1,2.2,0.4c0.6,0.2,1.1,0.6,1.5,1s0.7,1,0.8,1.6c0.2,0.6,0.3,1.3,0.3,2v8.4
	c-0.2,0.1-0.4,0.1-0.7,0.2c-0.3,0.1-0.7,0.1-1.1,0.2s-0.9,0.1-1.4,0.2c-0.5,0-1.1,0.1-1.6,0.1c-0.7,0-1.4-0.1-1.9-0.2
	c-0.6-0.2-1.1-0.4-1.5-0.7c-0.4-0.3-0.8-0.8-1-1.3c-0.2-0.5-0.4-1.2-0.4-1.9c0-0.7,0.1-1.3,0.4-1.9c0.3-0.5,0.7-0.9,1.2-1.3
	c0.5-0.3,1.1-0.6,1.8-0.7c0.7-0.2,1.4-0.2,2.2-0.2c0.2,0,0.5,0,0.8,0c0.3,0,0.5,0.1,0.8,0.1c0.2,0,0.5,0.1,0.6,0.1
	c0.2,0,0.3,0.1,0.4,0.1v-0.8c0-0.5,0-0.9-0.1-1.4c-0.1-0.4-0.2-0.8-0.5-1.2c-0.2-0.4-0.6-0.6-1-0.9c-0.4-0.2-1-0.3-1.7-0.3
	c-1,0-1.7,0.1-2.2,0.2c-0.5,0.1-0.8,0.2-1.1,0.3l-0.2-1.5c0.3-0.1,0.7-0.3,1.4-0.4C565.7,39.6,566.4,39.6,567.3,39.6z M567.4,52
	c0.7,0,1.2,0,1.7-0.1c0.5,0,0.9-0.1,1.2-0.2v-4.7c-0.2-0.1-0.5-0.2-0.9-0.3c-0.4-0.1-1-0.1-1.7-0.1c-0.4,0-0.8,0-1.3,0.1
	c-0.4,0.1-0.9,0.2-1.2,0.4c-0.4,0.2-0.7,0.5-0.9,0.8s-0.4,0.8-0.4,1.4c0,0.5,0.1,0.9,0.2,1.3c0.2,0.3,0.4,0.6,0.7,0.8
	c0.3,0.2,0.7,0.4,1.1,0.5C566.4,51.9,566.9,52,567.4,52z"/>
<path class="st1" d="M575.4,40.3c0.5-0.1,1.2-0.3,2-0.5c0.8-0.2,1.9-0.3,3.1-0.3c1,0,1.9,0.1,2.5,0.4c0.7,0.3,1.2,0.7,1.6,1.2
	c0.4,0.5,0.7,1.2,0.9,1.9c0.2,0.8,0.3,1.6,0.3,2.5v7.4h-1.7v-6.9c0-0.9-0.1-1.7-0.2-2.4c-0.1-0.7-0.3-1.2-0.6-1.6
	c-0.3-0.4-0.7-0.7-1.2-0.9c-0.5-0.2-1.1-0.3-1.8-0.3c-0.8,0-1.5,0-2,0.1c-0.6,0.1-0.9,0.2-1.1,0.2v11.7h-1.7V40.3z"/>
<path class="st1" d="M593.1,39.6c0.9,0,1.6,0.1,2.2,0.4c0.6,0.2,1.1,0.6,1.5,1s0.7,1,0.8,1.6c0.2,0.6,0.3,1.3,0.3,2v8.4
	c-0.2,0.1-0.4,0.1-0.7,0.2c-0.3,0.1-0.7,0.1-1.1,0.2s-0.9,0.1-1.4,0.2c-0.5,0-1.1,0.1-1.6,0.1c-0.7,0-1.4-0.1-1.9-0.2
	c-0.6-0.2-1.1-0.4-1.5-0.7c-0.4-0.3-0.8-0.8-1-1.3c-0.2-0.5-0.4-1.2-0.4-1.9c0-0.7,0.1-1.3,0.4-1.9c0.3-0.5,0.7-0.9,1.2-1.3
	s1.1-0.6,1.8-0.7c0.7-0.2,1.4-0.2,2.2-0.2c0.2,0,0.5,0,0.8,0c0.3,0,0.5,0.1,0.8,0.1c0.2,0,0.5,0.1,0.6,0.1c0.2,0,0.3,0.1,0.4,0.1
	v-0.8c0-0.5,0-0.9-0.1-1.4c-0.1-0.4-0.2-0.8-0.5-1.2c-0.2-0.4-0.6-0.6-1-0.9c-0.4-0.2-1-0.3-1.7-0.3c-1,0-1.7,0.1-2.2,0.2
	c-0.5,0.1-0.8,0.2-1.1,0.3l-0.2-1.5c0.3-0.1,0.7-0.3,1.4-0.4C591.5,39.6,592.3,39.6,593.1,39.6z M593.3,52c0.7,0,1.2,0,1.7-0.1
	c0.5,0,0.9-0.1,1.3-0.2v-4.7c-0.2-0.1-0.5-0.2-0.9-0.3c-0.4-0.1-1-0.1-1.7-0.1c-0.4,0-0.8,0-1.3,0.1c-0.4,0.1-0.9,0.2-1.2,0.4
	c-0.4,0.2-0.7,0.5-0.9,0.8s-0.4,0.8-0.4,1.4c0,0.5,0.1,0.9,0.2,1.3c0.2,0.3,0.4,0.6,0.7,0.8c0.3,0.2,0.7,0.4,1.1,0.5
	C592.3,51.9,592.7,52,593.3,52z"/>
<path class="st1" d="M611.9,52.8c-0.5,0.2-1.1,0.3-1.9,0.5c-0.8,0.2-1.8,0.2-2.9,0.2c-1,0-1.9-0.2-2.7-0.5c-0.8-0.3-1.5-0.8-2.1-1.4
	c-0.6-0.6-1-1.3-1.3-2.2s-0.5-1.8-0.5-2.9c0-1,0.1-1.9,0.4-2.8c0.3-0.8,0.7-1.6,1.2-2.2c0.5-0.6,1.1-1.1,1.9-1.4
	c0.7-0.3,1.6-0.5,2.6-0.5c0.9,0,1.6,0.1,2.3,0.4c0.6,0.2,1.1,0.5,1.4,0.7v-7.2l1.7-0.3V52.8z M610.2,42.3c-0.2-0.1-0.3-0.2-0.6-0.4
	c-0.2-0.1-0.5-0.3-0.8-0.4c-0.3-0.1-0.6-0.2-1-0.3c-0.4-0.1-0.7-0.1-1.1-0.1c-0.8,0-1.5,0.1-2.1,0.4c-0.6,0.3-1,0.7-1.4,1.2
	c-0.3,0.5-0.6,1.1-0.7,1.7c-0.2,0.7-0.2,1.4-0.2,2.1c0,1.8,0.4,3.1,1.3,4c0.9,0.9,2,1.4,3.5,1.4c0.8,0,1.5,0,2-0.1
	c0.5-0.1,0.9-0.2,1.1-0.2V42.3z"/>
<path class="st1" d="M619.4,39.6c0.9,0,1.6,0.1,2.2,0.4c0.6,0.2,1.1,0.6,1.5,1s0.7,1,0.8,1.6c0.2,0.6,0.3,1.3,0.3,2v8.4
	c-0.2,0.1-0.4,0.1-0.7,0.2c-0.3,0.1-0.7,0.1-1.1,0.2s-0.9,0.1-1.4,0.2c-0.5,0-1.1,0.1-1.6,0.1c-0.7,0-1.4-0.1-1.9-0.2
	c-0.6-0.2-1.1-0.4-1.5-0.7c-0.4-0.3-0.8-0.8-1-1.3c-0.2-0.5-0.4-1.2-0.4-1.9c0-0.7,0.1-1.3,0.4-1.9c0.3-0.5,0.7-0.9,1.2-1.3
	s1.1-0.6,1.8-0.7c0.7-0.2,1.4-0.2,2.2-0.2c0.2,0,0.5,0,0.8,0c0.3,0,0.5,0.1,0.8,0.1s0.5,0.1,0.6,0.1c0.2,0,0.3,0.1,0.4,0.1v-0.8
	c0-0.5,0-0.9-0.1-1.4c-0.1-0.4-0.2-0.8-0.5-1.2c-0.2-0.4-0.6-0.6-1-0.9c-0.4-0.2-1-0.3-1.7-0.3c-1,0-1.7,0.1-2.2,0.2
	c-0.5,0.1-0.8,0.2-1.1,0.3l-0.2-1.5c0.3-0.1,0.7-0.3,1.4-0.4C617.8,39.6,618.5,39.6,619.4,39.6z M619.5,52c0.7,0,1.2,0,1.7-0.1
	c0.5,0,0.9-0.1,1.2-0.2v-4.7c-0.2-0.1-0.5-0.2-0.9-0.3c-0.4-0.1-1-0.1-1.7-0.1c-0.4,0-0.8,0-1.3,0.1c-0.4,0.1-0.9,0.2-1.2,0.4
	c-0.4,0.2-0.7,0.5-0.9,0.8s-0.4,0.8-0.4,1.4c0,0.5,0.1,0.9,0.2,1.3c0.2,0.3,0.4,0.6,0.7,0.8c0.3,0.2,0.7,0.4,1.1,0.5
	C618.5,51.9,619,52,619.5,52z"/>
<path class="st1" d="M130.6,26.2c-0.2-0.6-0.4-1.3-0.6-1.9c-0.2-0.7-0.5-1.3-0.7-2h-7c-0.2,0.7-0.5,1.3-0.7,2s-0.4,1.3-0.6,1.9h-4.2
	c0.7-1.9,1.3-3.7,1.9-5.3c0.6-1.6,1.2-3.2,1.8-4.6s1.1-2.8,1.7-4.1c0.6-1.3,1.1-2.6,1.7-3.8h3.8c0.6,1.2,1.2,2.5,1.7,3.8
	c0.6,1.3,1.1,2.7,1.7,4.1c0.6,1.4,1.2,3,1.8,4.6c0.6,1.6,1.2,3.4,1.9,5.3H130.6z M125.7,12.4c-0.1,0.3-0.2,0.6-0.4,1.1
	c-0.2,0.4-0.4,1-0.6,1.5c-0.2,0.6-0.5,1.2-0.7,1.9c-0.3,0.7-0.5,1.4-0.8,2.2h5.1c-0.3-0.8-0.5-1.5-0.8-2.2c-0.3-0.7-0.5-1.4-0.7-1.9
	c-0.2-0.6-0.4-1.1-0.6-1.5C126,13,125.8,12.7,125.7,12.4z"/>
<path class="st1" d="M141.3,26.5c-1.1,0-2-0.1-2.7-0.4c-0.7-0.2-1.2-0.5-1.6-0.9c-0.4-0.4-0.7-0.9-0.8-1.5c-0.1-0.6-0.2-1.2-0.2-1.9
	V6.8l3.8-0.6V21c0,0.3,0,0.7,0.1,0.9c0.1,0.3,0.2,0.5,0.3,0.7c0.1,0.2,0.4,0.3,0.6,0.5c0.3,0.1,0.6,0.2,1.1,0.2L141.3,26.5z"/>
<path class="st1" d="M148.7,26.5c-1.1,0-2-0.1-2.7-0.4c-0.7-0.2-1.2-0.5-1.6-0.9c-0.4-0.4-0.7-0.9-0.8-1.5c-0.1-0.6-0.2-1.2-0.2-1.9
	V6.8l3.8-0.6V21c0,0.3,0,0.7,0.1,0.9c0.1,0.3,0.1,0.5,0.3,0.7c0.1,0.2,0.4,0.3,0.6,0.5c0.3,0.1,0.6,0.2,1.1,0.2L148.7,26.5z"/>
<path class="st1" d="M154.9,8.7c0,0.7-0.2,1.3-0.7,1.7c-0.5,0.4-1,0.6-1.6,0.6c-0.6,0-1.2-0.2-1.6-0.6c-0.5-0.4-0.7-1-0.7-1.7
	c0-0.7,0.2-1.3,0.7-1.7c0.5-0.4,1-0.6,1.6-0.6c0.6,0,1.2,0.2,1.6,0.6C154.7,7.5,154.9,8,154.9,8.7z M154.6,26.2h-3.8V12.7h3.8V26.2z
	"/>
<path class="st1" d="M162.3,12.3c1.1,0,2.1,0.1,2.8,0.4c0.8,0.3,1.4,0.6,1.8,1.1s0.8,1.1,1,1.8c0.2,0.7,0.3,1.5,0.3,2.3v8
	c-0.6,0.1-1.3,0.3-2.3,0.4c-1,0.2-2.2,0.2-3.6,0.2c-0.9,0-1.7-0.1-2.4-0.2c-0.7-0.2-1.3-0.4-1.8-0.8c-0.5-0.4-0.9-0.8-1.2-1.4
	c-0.3-0.6-0.4-1.3-0.4-2.1c0-0.8,0.2-1.5,0.5-2c0.3-0.5,0.7-1,1.3-1.3c0.5-0.3,1.1-0.6,1.8-0.7c0.7-0.1,1.4-0.2,2.1-0.2
	c0.5,0,0.9,0,1.3,0.1c0.4,0,0.7,0.1,0.9,0.2v-0.4c0-0.7-0.2-1.2-0.6-1.6c-0.4-0.4-1.1-0.6-2.1-0.6c-0.7,0-1.3,0-1.9,0.1
	c-0.6,0.1-1.2,0.2-1.6,0.4l-0.5-3.1c0.2-0.1,0.5-0.1,0.8-0.2c0.3-0.1,0.7-0.1,1.1-0.2c0.4-0.1,0.8-0.1,1.2-0.2
	C161.4,12.3,161.9,12.3,162.3,12.3z M162.6,23.5c0.4,0,0.7,0,1.1,0c0.3,0,0.6,0,0.8-0.1v-2.9c-0.2,0-0.4-0.1-0.7-0.1
	c-0.3,0-0.6-0.1-0.8-0.1c-0.4,0-0.7,0-1,0.1c-0.3,0-0.6,0.1-0.8,0.2c-0.2,0.1-0.4,0.3-0.6,0.5c-0.1,0.2-0.2,0.5-0.2,0.8
	c0,0.6,0.2,1,0.6,1.2C161.4,23.4,161.9,23.5,162.6,23.5z"/>
<path class="st1" d="M171,13.1c0.7-0.2,1.5-0.4,2.5-0.5c1-0.2,2.1-0.2,3.2-0.2c1.1,0,2.1,0.2,2.9,0.5c0.8,0.3,1.4,0.7,1.8,1.3
	c0.4,0.5,0.8,1.2,1,2c0.2,0.8,0.3,1.6,0.3,2.5v7.7h-3.8V19c0-1.2-0.2-2.1-0.5-2.6c-0.3-0.5-0.9-0.8-1.8-0.8c-0.3,0-0.6,0-0.9,0
	c-0.3,0-0.6,0.1-0.8,0.1v10.5H171V13.1z"/>
<path class="st1" d="M184.7,19.4c0-1,0.2-1.9,0.5-2.8c0.3-0.9,0.8-1.6,1.4-2.3c0.6-0.6,1.3-1.2,2.2-1.5c0.9-0.4,1.8-0.6,2.9-0.6
	c0.7,0,1.4,0.1,2,0.2c0.6,0.1,1.2,0.3,1.8,0.6l-0.8,3.1c-0.4-0.1-0.8-0.3-1.2-0.4c-0.4-0.1-0.9-0.2-1.4-0.2c-1.1,0-2,0.4-2.5,1.1
	c-0.6,0.7-0.8,1.6-0.8,2.8c0,1.2,0.3,2.2,0.8,2.8c0.5,0.7,1.4,1,2.7,1c0.5,0,1,0,1.5-0.1c0.5-0.1,1-0.2,1.5-0.4l0.5,3.1
	c-0.4,0.2-1,0.4-1.7,0.5c-0.7,0.1-1.4,0.2-2.2,0.2c-1.2,0-2.3-0.2-3.2-0.6c-0.9-0.4-1.6-0.9-2.2-1.5c-0.6-0.6-1-1.4-1.3-2.3
	C184.8,21.4,184.7,20.4,184.7,19.4z"/>
<path class="st1" d="M196.6,19.5c0-1.2,0.2-2.3,0.6-3.2c0.4-0.9,0.9-1.7,1.5-2.3c0.6-0.6,1.3-1.1,2.1-1.4c0.8-0.3,1.6-0.5,2.4-0.5
	c1.9,0,3.4,0.6,4.6,1.8c1.1,1.2,1.7,2.9,1.7,5.2c0,0.2,0,0.5,0,0.7c0,0.3,0,0.5-0.1,0.7h-8.7c0.1,0.8,0.5,1.4,1.1,1.9
	c0.7,0.5,1.5,0.7,2.6,0.7c0.7,0,1.4-0.1,2.1-0.2c0.7-0.1,1.2-0.3,1.7-0.5l0.5,3.1c-0.2,0.1-0.5,0.2-0.8,0.3
	c-0.3,0.1-0.7,0.2-1.1,0.3c-0.4,0.1-0.9,0.1-1.4,0.2c-0.5,0.1-1,0.1-1.4,0.1c-1.2,0-2.3-0.2-3.2-0.5c-0.9-0.4-1.6-0.9-2.2-1.5
	c-0.6-0.6-1-1.4-1.3-2.2C196.7,21.5,196.6,20.5,196.6,19.5z M205.6,18.1c0-0.3-0.1-0.6-0.2-1c-0.1-0.3-0.2-0.6-0.4-0.8
	c-0.2-0.2-0.4-0.4-0.7-0.6c-0.3-0.2-0.7-0.2-1.1-0.2c-0.4,0-0.8,0.1-1.1,0.2c-0.3,0.1-0.6,0.3-0.8,0.6c-0.2,0.2-0.4,0.5-0.5,0.8
	c-0.1,0.3-0.2,0.6-0.2,1H205.6z"/>
<path class="st1" d="M229.1,25.8c-0.3,0.1-0.7,0.2-1.2,0.3c-0.4,0.1-0.9,0.2-1.4,0.2c-0.5,0.1-1,0.1-1.5,0.2c-0.5,0-1,0.1-1.5,0.1
	c-1.1,0-2.1-0.2-3-0.5c-0.9-0.3-1.6-0.8-2.2-1.4c-0.6-0.6-1.1-1.3-1.4-2.2c-0.3-0.9-0.5-1.8-0.5-2.9c0-1.1,0.1-2.1,0.4-3
	c0.3-0.9,0.7-1.6,1.2-2.3c0.5-0.6,1.1-1.1,1.9-1.4s1.6-0.5,2.6-0.5c0.5,0,1,0.1,1.4,0.2c0.4,0.1,0.8,0.2,1.3,0.4V6.8l3.8-0.6V25.8z
	 M220.5,19.3c0,1.2,0.3,2.1,0.8,2.9c0.5,0.7,1.3,1.1,2.4,1.1c0.3,0,0.7,0,1,0c0.3,0,0.5-0.1,0.7-0.1v-7c-0.2-0.2-0.6-0.3-0.9-0.4
	c-0.4-0.1-0.8-0.2-1.2-0.2C221.4,15.6,220.5,16.9,220.5,19.3z"/>
<path class="st1" d="M231.3,19.5c0-1.2,0.2-2.3,0.6-3.2c0.4-0.9,0.9-1.7,1.5-2.3c0.6-0.6,1.3-1.1,2.1-1.4c0.8-0.3,1.6-0.5,2.4-0.5
	c1.9,0,3.4,0.6,4.6,1.8c1.1,1.2,1.7,2.9,1.7,5.2c0,0.2,0,0.5,0,0.7c0,0.3,0,0.5-0.1,0.7h-8.7c0.1,0.8,0.5,1.4,1.1,1.9
	c0.7,0.5,1.5,0.7,2.6,0.7c0.7,0,1.4-0.1,2.1-0.2c0.7-0.1,1.2-0.3,1.7-0.5l0.5,3.1c-0.2,0.1-0.5,0.2-0.8,0.3
	c-0.3,0.1-0.7,0.2-1.1,0.3c-0.4,0.1-0.9,0.1-1.4,0.2s-1,0.1-1.4,0.1c-1.2,0-2.3-0.2-3.2-0.5c-0.9-0.4-1.6-0.9-2.2-1.5
	c-0.6-0.6-1-1.4-1.3-2.2C231.5,21.5,231.3,20.5,231.3,19.5z M240.4,18.1c0-0.3-0.1-0.6-0.2-1c-0.1-0.3-0.2-0.6-0.4-0.8
	c-0.2-0.2-0.4-0.4-0.7-0.6c-0.3-0.2-0.7-0.2-1.1-0.2c-0.4,0-0.8,0.1-1.1,0.2c-0.3,0.1-0.6,0.3-0.8,0.6c-0.2,0.2-0.4,0.5-0.5,0.8
	c-0.1,0.3-0.2,0.6-0.2,1H240.4z"/>
<path class="st1" d="M260.1,16.1c-0.3-0.1-0.7-0.2-1.2-0.3c-0.5-0.1-1-0.1-1.5-0.1c-0.2,0-0.5,0-0.9,0.1c-0.3,0-0.6,0.1-0.8,0.1
	v10.4h-3.8V13.4c0.7-0.2,1.5-0.5,2.4-0.7c0.9-0.2,2-0.3,3.1-0.3c0.2,0,0.5,0,0.7,0c0.3,0,0.6,0.1,0.9,0.1c0.3,0,0.6,0.1,0.9,0.2
	c0.3,0.1,0.5,0.1,0.7,0.2L260.1,16.1z"/>
<path class="st1" d="M261.2,19.5c0-1.2,0.2-2.3,0.6-3.2c0.4-0.9,0.9-1.7,1.5-2.3s1.3-1.1,2.1-1.4c0.8-0.3,1.6-0.5,2.4-0.5
	c1.9,0,3.4,0.6,4.6,1.8c1.1,1.2,1.7,2.9,1.7,5.2c0,0.2,0,0.5,0,0.7c0,0.3,0,0.5-0.1,0.7h-8.7c0.1,0.8,0.5,1.4,1.1,1.9
	c0.7,0.5,1.5,0.7,2.6,0.7c0.7,0,1.4-0.1,2.1-0.2c0.7-0.1,1.2-0.3,1.7-0.5l0.5,3.1c-0.2,0.1-0.5,0.2-0.8,0.3
	c-0.3,0.1-0.7,0.2-1.1,0.3c-0.4,0.1-0.9,0.1-1.4,0.2s-1,0.1-1.4,0.1c-1.2,0-2.3-0.2-3.2-0.5c-0.9-0.4-1.6-0.9-2.2-1.5
	c-0.6-0.6-1-1.4-1.3-2.2C261.4,21.5,261.2,20.5,261.2,19.5z M270.3,18.1c0-0.3-0.1-0.6-0.2-1c-0.1-0.3-0.2-0.6-0.4-0.8
	c-0.2-0.2-0.4-0.4-0.7-0.6c-0.3-0.2-0.7-0.2-1.1-0.2c-0.4,0-0.8,0.1-1.1,0.2c-0.3,0.1-0.6,0.3-0.8,0.6c-0.2,0.2-0.4,0.5-0.5,0.8
	c-0.1,0.3-0.2,0.6-0.2,1H270.3z"/>
<path class="st1" d="M275.5,19.4c0-1,0.2-1.9,0.5-2.8c0.3-0.9,0.8-1.6,1.4-2.3c0.6-0.6,1.3-1.2,2.2-1.5c0.9-0.4,1.8-0.6,2.9-0.6
	c0.7,0,1.4,0.1,2,0.2c0.6,0.1,1.2,0.3,1.8,0.6l-0.8,3.1c-0.4-0.1-0.8-0.3-1.2-0.4c-0.4-0.1-0.9-0.2-1.4-0.2c-1.1,0-2,0.4-2.5,1.1
	c-0.6,0.7-0.8,1.6-0.8,2.8c0,1.2,0.3,2.2,0.8,2.8c0.5,0.7,1.4,1,2.7,1c0.5,0,1,0,1.5-0.1c0.5-0.1,1-0.2,1.5-0.4l0.5,3.1
	c-0.4,0.2-1,0.4-1.7,0.5c-0.7,0.1-1.4,0.2-2.2,0.2c-1.2,0-2.3-0.2-3.2-0.6c-0.9-0.4-1.6-0.9-2.2-1.5c-0.6-0.6-1-1.4-1.3-2.3
	C275.6,21.4,275.5,20.4,275.5,19.4z"/>
<path class="st1" d="M288.3,26.2V6.8l3.8-0.6v6.5c0.3-0.1,0.6-0.2,1-0.2c0.4-0.1,0.8-0.1,1.2-0.1c1.1,0,2,0.2,2.7,0.5
	c0.7,0.3,1.3,0.7,1.8,1.3c0.4,0.5,0.7,1.2,0.9,2c0.2,0.8,0.3,1.6,0.3,2.5v7.7h-3.8V19c0-1.2-0.2-2.1-0.5-2.6
	c-0.3-0.5-0.9-0.8-1.8-0.8c-0.3,0-0.7,0-1,0.1c-0.3,0.1-0.6,0.1-0.8,0.2v10.3H288.3z"/>
<path class="st1" d="M302,19.5c0-1.2,0.2-2.3,0.6-3.2c0.4-0.9,0.9-1.7,1.5-2.3c0.6-0.6,1.3-1.1,2.1-1.4c0.8-0.3,1.6-0.5,2.4-0.5
	c1.9,0,3.4,0.6,4.6,1.8c1.1,1.2,1.7,2.9,1.7,5.2c0,0.2,0,0.5,0,0.7c0,0.3,0,0.5-0.1,0.7H306c0.1,0.8,0.5,1.4,1.1,1.9
	c0.7,0.5,1.5,0.7,2.6,0.7c0.7,0,1.4-0.1,2.1-0.2c0.7-0.1,1.2-0.3,1.7-0.5l0.5,3.1c-0.2,0.1-0.5,0.2-0.8,0.3
	c-0.3,0.1-0.7,0.2-1.1,0.3c-0.4,0.1-0.9,0.1-1.4,0.2c-0.5,0.1-1,0.1-1.4,0.1c-1.2,0-2.3-0.2-3.2-0.5c-0.9-0.4-1.6-0.9-2.2-1.5
	c-0.6-0.6-1-1.4-1.3-2.2C302.2,21.5,302,20.5,302,19.5z M311,18.1c0-0.3-0.1-0.6-0.2-1c-0.1-0.3-0.2-0.6-0.4-0.8
	c-0.2-0.2-0.4-0.4-0.7-0.6c-0.3-0.2-0.7-0.2-1.1-0.2c-0.4,0-0.8,0.1-1.1,0.2c-0.3,0.1-0.6,0.3-0.8,0.6c-0.2,0.2-0.4,0.5-0.5,0.8
	c-0.1,0.3-0.2,0.6-0.2,1H311z"/>
<path class="st1" d="M325.2,16.1c-0.3-0.1-0.7-0.2-1.2-0.3c-0.5-0.1-1-0.1-1.5-0.1c-0.2,0-0.5,0-0.9,0.1c-0.3,0-0.6,0.1-0.8,0.1
	v10.4H317V13.4c0.7-0.2,1.5-0.5,2.4-0.7c0.9-0.2,2-0.3,3.1-0.3c0.2,0,0.5,0,0.7,0c0.3,0,0.6,0.1,0.9,0.1c0.3,0,0.6,0.1,0.9,0.2
	c0.3,0.1,0.5,0.1,0.7,0.2L325.2,16.1z"/>
<path class="st1" d="M326.3,19.4c0-1,0.2-1.9,0.5-2.8c0.3-0.9,0.8-1.6,1.4-2.3c0.6-0.6,1.3-1.2,2.2-1.5c0.9-0.4,1.8-0.6,2.9-0.6
	c0.7,0,1.4,0.1,2,0.2c0.6,0.1,1.2,0.3,1.8,0.6l-0.8,3.1c-0.4-0.1-0.8-0.3-1.2-0.4c-0.4-0.1-0.9-0.2-1.4-0.2c-1.1,0-2,0.4-2.5,1.1
	c-0.6,0.7-0.8,1.6-0.8,2.8c0,1.2,0.3,2.2,0.8,2.8c0.5,0.7,1.4,1,2.7,1c0.5,0,1,0,1.5-0.1c0.5-0.1,1-0.2,1.5-0.4l0.5,3.1
	c-0.4,0.2-1,0.4-1.7,0.5c-0.7,0.1-1.4,0.2-2.2,0.2c-1.2,0-2.3-0.2-3.2-0.6s-1.6-0.9-2.2-1.5c-0.6-0.6-1-1.4-1.3-2.3
	S326.3,20.4,326.3,19.4z"/>
<path class="st1" d="M339.1,26.2V6.8l3.8-0.6v6.5c0.3-0.1,0.6-0.2,1-0.2c0.4-0.1,0.8-0.1,1.2-0.1c1.1,0,2,0.2,2.7,0.5
	c0.7,0.3,1.3,0.7,1.8,1.3c0.4,0.5,0.7,1.2,0.9,2c0.2,0.8,0.3,1.6,0.3,2.5v7.7h-3.8V19c0-1.2-0.2-2.1-0.5-2.6
	c-0.3-0.5-0.9-0.8-1.8-0.8c-0.3,0-0.7,0-1,0.1c-0.3,0.1-0.6,0.1-0.8,0.2v10.3H339.1z"/>
<path class="st1" d="M352.8,19.5c0-1.2,0.2-2.3,0.6-3.2c0.4-0.9,0.9-1.7,1.5-2.3c0.6-0.6,1.3-1.1,2.1-1.4c0.8-0.3,1.6-0.5,2.4-0.5
	c1.9,0,3.4,0.6,4.6,1.8c1.1,1.2,1.7,2.9,1.7,5.2c0,0.2,0,0.5,0,0.7c0,0.3,0,0.5-0.1,0.7h-8.7c0.1,0.8,0.5,1.4,1.1,1.9
	c0.7,0.5,1.5,0.7,2.6,0.7c0.7,0,1.4-0.1,2.1-0.2c0.7-0.1,1.2-0.3,1.7-0.5l0.5,3.1c-0.2,0.1-0.5,0.2-0.8,0.3
	c-0.3,0.1-0.7,0.2-1.1,0.3c-0.4,0.1-0.9,0.1-1.4,0.2c-0.5,0.1-1,0.1-1.4,0.1c-1.2,0-2.3-0.2-3.2-0.5c-0.9-0.4-1.6-0.9-2.2-1.5
	c-0.6-0.6-1-1.4-1.3-2.2C353,21.5,352.8,20.5,352.8,19.5z M361.8,18.1c0-0.3-0.1-0.6-0.2-1c-0.1-0.3-0.2-0.6-0.4-0.8
	c-0.2-0.2-0.4-0.4-0.7-0.6c-0.3-0.2-0.7-0.2-1.1-0.2c-0.4,0-0.8,0.1-1.1,0.2c-0.3,0.1-0.6,0.3-0.8,0.6c-0.2,0.2-0.4,0.5-0.5,0.8
	c-0.1,0.3-0.2,0.6-0.2,1H361.8z"/>
<path class="st1" d="M118.4,40.1c0.7-0.2,1.5-0.4,2.5-0.5c1-0.2,2.1-0.2,3.2-0.2c1.2,0,2.1,0.2,2.9,0.5c0.8,0.3,1.4,0.7,1.8,1.3
	c0.4,0.5,0.8,1.2,1,2c0.2,0.8,0.3,1.6,0.3,2.5v7.7h-3.8V46c0-1.2-0.2-2.1-0.5-2.6c-0.3-0.5-0.9-0.8-1.8-0.8c-0.3,0-0.6,0-0.9,0
	c-0.3,0-0.6,0.1-0.8,0.1v10.5h-3.8V40.1z"/>
<path class="st1" d="M144.4,52.7c-0.7,0.2-1.5,0.4-2.5,0.5c-1,0.2-2.1,0.2-3.2,0.2c-1.2,0-2.1-0.2-2.9-0.5c-0.8-0.3-1.4-0.7-1.8-1.3
	c-0.4-0.6-0.8-1.2-1-2s-0.3-1.6-0.3-2.6v-7.5h3.8v7.1c0,1.2,0.2,2.1,0.5,2.7c0.3,0.5,0.9,0.8,1.8,0.8c0.3,0,0.6,0,0.9,0
	c0.3,0,0.6-0.1,0.8-0.1V39.6h3.8V52.7z"/>
<path class="st1" d="M154.7,46c0-1.2-0.2-2.1-0.5-2.6c-0.3-0.5-0.9-0.8-1.6-0.8c-0.2,0-0.5,0-0.7,0c-0.3,0-0.5,0.1-0.7,0.1v10.5
	h-3.8V40.1c0.3-0.1,0.7-0.2,1.1-0.3c0.4-0.1,0.9-0.2,1.4-0.3c0.5-0.1,1-0.1,1.5-0.2c0.5,0,1-0.1,1.5-0.1c1,0,1.8,0.1,2.4,0.4
	c0.6,0.2,1.1,0.5,1.5,0.9c0.6-0.4,1.2-0.7,1.9-0.9c0.7-0.2,1.4-0.3,2-0.3c1.1,0,2,0.2,2.7,0.5c0.7,0.3,1.2,0.7,1.7,1.3
	c0.4,0.5,0.7,1.2,0.8,2c0.2,0.8,0.2,1.6,0.2,2.5v7.7h-3.8V46c0-1.2-0.2-2.1-0.5-2.6c-0.3-0.5-0.9-0.8-1.6-0.8
	c-0.2,0-0.5,0.1-0.9,0.2c-0.4,0.1-0.7,0.2-0.9,0.4c0.1,0.4,0.2,0.8,0.2,1.2c0,0.4,0.1,0.9,0.1,1.4v7.4h-3.8V46z"/>
<path class="st1" d="M168,46.5c0-1.2,0.2-2.3,0.6-3.2c0.4-0.9,0.9-1.7,1.5-2.3c0.6-0.6,1.3-1.1,2.1-1.4c0.8-0.3,1.6-0.5,2.4-0.5
	c1.9,0,3.4,0.6,4.6,1.8c1.1,1.2,1.7,2.9,1.7,5.2c0,0.2,0,0.5,0,0.7c0,0.3,0,0.5-0.1,0.7h-8.7c0.1,0.8,0.5,1.4,1.1,1.9
	c0.7,0.5,1.5,0.7,2.6,0.7c0.7,0,1.4-0.1,2.1-0.2c0.7-0.1,1.2-0.3,1.7-0.5l0.5,3.1c-0.2,0.1-0.5,0.2-0.8,0.3s-0.7,0.2-1.1,0.3
	c-0.4,0.1-0.9,0.1-1.4,0.2c-0.5,0.1-1,0.1-1.4,0.1c-1.2,0-2.3-0.2-3.2-0.5c-0.9-0.4-1.6-0.9-2.2-1.5c-0.6-0.6-1-1.4-1.3-2.2
	C168.1,48.4,168,47.5,168,46.5z M177.6,34.8l-4.2,3.6l-1.8-1.6l3.6-4.2L177.6,34.8z M177,45c0-0.3-0.1-0.6-0.2-1
	c-0.1-0.3-0.2-0.6-0.4-0.8c-0.2-0.2-0.4-0.4-0.7-0.6c-0.3-0.2-0.7-0.2-1.1-0.2c-0.4,0-0.8,0.1-1.1,0.2c-0.3,0.1-0.6,0.3-0.8,0.6
	c-0.2,0.2-0.4,0.5-0.5,0.8c-0.1,0.3-0.2,0.6-0.2,1H177z"/>
<path class="st1" d="M191.1,43c-0.3-0.1-0.7-0.2-1.2-0.3c-0.5-0.1-1-0.1-1.5-0.1c-0.2,0-0.5,0-0.9,0.1c-0.3,0-0.6,0.1-0.8,0.1v10.4
	H183V40.4c0.7-0.2,1.5-0.5,2.4-0.7c0.9-0.2,2-0.3,3.1-0.3c0.2,0,0.5,0,0.7,0c0.3,0,0.6,0.1,0.9,0.1c0.3,0,0.6,0.1,0.9,0.2
	c0.3,0.1,0.5,0.1,0.7,0.2L191.1,43z"/>
<path class="st1" d="M197.4,35.7c0,0.7-0.2,1.3-0.7,1.7c-0.5,0.4-1,0.6-1.6,0.6c-0.6,0-1.2-0.2-1.6-0.6c-0.5-0.4-0.7-1-0.7-1.7
	c0-0.7,0.2-1.3,0.7-1.7c0.5-0.4,1-0.6,1.6-0.6c0.6,0,1.2,0.2,1.6,0.6C197.2,34.5,197.4,35,197.4,35.7z M197,53.2h-3.8V39.6h3.8V53.2
	z"/>
<path class="st1" d="M199.2,46.4c0-1,0.2-2,0.5-2.9c0.3-0.9,0.8-1.6,1.4-2.2c0.6-0.6,1.3-1.1,2.2-1.5c0.9-0.3,1.9-0.5,3-0.5
	c0.5,0,0.9,0,1.5,0.1c0.5,0,1,0.1,1.5,0.2c0.5,0.1,1,0.2,1.4,0.2c0.4,0.1,0.8,0.2,1.2,0.3V58h-3.8v-5.1c-0.4,0.2-0.9,0.3-1.3,0.4
	c-0.5,0.1-1,0.2-1.5,0.2c-1.9,0-3.4-0.6-4.4-1.9C199.7,50.3,199.2,48.6,199.2,46.4z M203.1,46.5c0,2.5,0.9,3.7,2.7,3.7
	c0.4,0,0.8-0.1,1.2-0.2c0.4-0.1,0.7-0.2,0.9-0.4v-6.9c-0.2,0-0.4-0.1-0.7-0.1c-0.3,0-0.6,0-1,0c-1,0-1.8,0.4-2.4,1.1
	C203.4,44.4,203.1,45.3,203.1,46.5z"/>
<path class="st1" d="M226.2,52.7c-0.7,0.2-1.5,0.4-2.5,0.5c-1,0.2-2.1,0.2-3.2,0.2c-1.2,0-2.1-0.2-2.9-0.5c-0.8-0.3-1.4-0.7-1.8-1.3
	c-0.4-0.6-0.8-1.2-1-2c-0.2-0.8-0.3-1.6-0.3-2.6v-7.5h3.8v7.1c0,1.2,0.2,2.1,0.5,2.7c0.3,0.5,0.9,0.8,1.8,0.8c0.3,0,0.6,0,0.9,0
	c0.3,0,0.6-0.1,0.8-0.1V39.6h3.8V52.7z"/>
<path class="st1" d="M228.4,46.5c0-1.2,0.2-2.3,0.6-3.2c0.4-0.9,0.9-1.7,1.5-2.3c0.6-0.6,1.3-1.1,2.1-1.4c0.8-0.3,1.6-0.5,2.4-0.5
	c1.9,0,3.4,0.6,4.6,1.8c1.1,1.2,1.7,2.9,1.7,5.2c0,0.2,0,0.5,0,0.7c0,0.3,0,0.5-0.1,0.7h-8.7c0.1,0.8,0.5,1.4,1.1,1.9
	c0.7,0.5,1.5,0.7,2.6,0.7c0.7,0,1.4-0.1,2.1-0.2c0.7-0.1,1.2-0.3,1.7-0.5l0.5,3.1c-0.2,0.1-0.5,0.2-0.8,0.3
	c-0.3,0.1-0.7,0.2-1.1,0.3c-0.4,0.1-0.9,0.1-1.4,0.2c-0.5,0.1-1,0.1-1.4,0.1c-1.2,0-2.3-0.2-3.2-0.5c-0.9-0.4-1.6-0.9-2.2-1.5
	c-0.6-0.6-1-1.4-1.3-2.2S228.4,47.5,228.4,46.5z M237.4,45c0-0.3-0.1-0.6-0.2-1c-0.1-0.3-0.2-0.6-0.4-0.8c-0.2-0.2-0.4-0.4-0.7-0.6
	c-0.3-0.2-0.7-0.2-1.1-0.2c-0.4,0-0.8,0.1-1.1,0.2c-0.3,0.1-0.6,0.3-0.8,0.6c-0.2,0.2-0.4,0.5-0.5,0.8c-0.1,0.3-0.2,0.6-0.2,1H237.4
	z"/>
<path class="st1" d="M259.7,52.8c-0.5,0.2-1.1,0.3-1.9,0.5c-0.8,0.2-1.8,0.2-2.9,0.2c-1,0-1.9-0.2-2.7-0.5c-0.8-0.3-1.5-0.8-2.1-1.4
	c-0.6-0.6-1-1.3-1.3-2.2c-0.3-0.9-0.5-1.8-0.5-2.9c0-1,0.1-1.9,0.4-2.8s0.7-1.6,1.2-2.2c0.5-0.6,1.1-1.1,1.9-1.4
	c0.7-0.3,1.6-0.5,2.6-0.5c0.9,0,1.6,0.1,2.3,0.4c0.6,0.2,1.1,0.5,1.4,0.7v-7.2l1.7-0.3V52.8z M258,42.3c-0.2-0.1-0.3-0.2-0.6-0.4
	c-0.2-0.1-0.5-0.3-0.8-0.4c-0.3-0.1-0.6-0.2-1-0.3c-0.4-0.1-0.7-0.1-1.1-0.1c-0.8,0-1.5,0.1-2.1,0.4c-0.6,0.3-1,0.7-1.4,1.2
	c-0.3,0.5-0.6,1.1-0.7,1.7c-0.2,0.7-0.2,1.4-0.2,2.1c0,1.8,0.4,3.1,1.3,4c0.9,0.9,2,1.4,3.5,1.4c0.8,0,1.5,0,2-0.1
	c0.5-0.1,0.9-0.2,1.1-0.2V42.3z"/>
<path class="st1" d="M273.4,52.7c-0.5,0.1-1.2,0.3-2,0.5c-0.8,0.2-1.9,0.3-3.1,0.3c-1,0-1.8-0.1-2.5-0.4c-0.7-0.3-1.2-0.7-1.6-1.2
	c-0.4-0.5-0.7-1.2-0.9-1.9c-0.2-0.8-0.3-1.6-0.3-2.5v-7.5h1.7v6.9c0,0.9,0.1,1.7,0.2,2.4c0.1,0.7,0.4,1.2,0.7,1.6
	c0.3,0.4,0.7,0.7,1.2,0.9c0.5,0.2,1.1,0.3,1.8,0.3c0.8,0,1.5,0,2.1-0.1c0.6-0.1,1-0.2,1.1-0.2V39.9h1.7V52.7z"/>
<path class="st1" d="M289.9,53.6c-1.2,0-2.2-0.2-3.2-0.6c-1-0.4-1.8-1-2.6-1.8c-0.7-0.8-1.3-1.8-1.7-2.9c-0.4-1.2-0.6-2.5-0.6-4
	c0-1.5,0.2-2.8,0.7-4c0.5-1.2,1.1-2.1,1.8-2.9c0.8-0.8,1.6-1.4,2.6-1.8c1-0.4,2-0.6,3.1-0.6c0.7,0,1.3,0,1.8,0.1
	c0.5,0.1,1,0.2,1.4,0.3c0.4,0.1,0.8,0.3,1.1,0.4c0.3,0.1,0.5,0.2,0.7,0.3l-0.6,1.5c-0.4-0.3-1-0.5-1.6-0.8c-0.7-0.2-1.5-0.4-2.5-0.4
	c-1.1,0-2.1,0.2-2.9,0.6c-0.8,0.4-1.5,0.9-2.1,1.6c-0.6,0.7-1,1.5-1.3,2.4c-0.3,0.9-0.4,2-0.4,3.1c0,1.2,0.1,2.3,0.4,3.2
	c0.3,1,0.7,1.8,1.2,2.4c0.5,0.7,1.2,1.2,2,1.5c0.8,0.4,1.7,0.5,2.7,0.5c1.1,0,2.1-0.1,2.8-0.3c0.8-0.2,1.3-0.4,1.7-0.7l0.5,1.5
	c-0.1,0.1-0.3,0.2-0.6,0.3s-0.7,0.2-1.1,0.3c-0.4,0.1-1,0.2-1.5,0.3C291.3,53.5,290.7,53.6,289.9,53.6z"/>
<path class="st1" d="M301.6,39.6c0.9,0,1.6,0.1,2.2,0.4c0.6,0.2,1.1,0.6,1.5,1c0.4,0.4,0.7,1,0.8,1.6c0.2,0.6,0.3,1.3,0.3,2v8.4
	c-0.2,0.1-0.4,0.1-0.7,0.2c-0.3,0.1-0.7,0.1-1.1,0.2c-0.4,0.1-0.9,0.1-1.4,0.2s-1.1,0.1-1.6,0.1c-0.7,0-1.4-0.1-1.9-0.2
	c-0.6-0.2-1.1-0.4-1.5-0.7c-0.4-0.3-0.8-0.8-1-1.3c-0.2-0.5-0.4-1.2-0.4-1.9c0-0.7,0.1-1.3,0.4-1.9c0.3-0.5,0.7-0.9,1.2-1.3
	c0.5-0.3,1.1-0.6,1.8-0.7c0.7-0.2,1.4-0.2,2.2-0.2c0.2,0,0.5,0,0.8,0c0.3,0,0.5,0.1,0.8,0.1c0.2,0,0.5,0.1,0.6,0.1
	c0.2,0,0.3,0.1,0.4,0.1v-0.8c0-0.5,0-0.9-0.1-1.4c-0.1-0.4-0.2-0.8-0.5-1.2c-0.2-0.4-0.6-0.6-1-0.9c-0.4-0.2-1-0.3-1.7-0.3
	c-1,0-1.7,0.1-2.2,0.2c-0.5,0.1-0.8,0.2-1.1,0.3l-0.2-1.5c0.3-0.1,0.7-0.3,1.4-0.4C300,39.6,300.7,39.6,301.6,39.6z M301.8,52
	c0.7,0,1.2,0,1.7-0.1c0.5,0,0.9-0.1,1.2-0.2v-4.7c-0.2-0.1-0.5-0.2-0.9-0.3c-0.4-0.1-1-0.1-1.7-0.1c-0.4,0-0.8,0-1.3,0.1
	c-0.4,0.1-0.9,0.2-1.2,0.4c-0.4,0.2-0.7,0.5-0.9,0.8c-0.2,0.3-0.4,0.8-0.4,1.4c0,0.5,0.1,0.9,0.2,1.3s0.4,0.6,0.7,0.8
	c0.3,0.2,0.7,0.4,1.1,0.5C300.8,51.9,301.2,52,301.8,52z"/>
<path class="st1" d="M309.8,40.3c0.5-0.1,1.2-0.3,2-0.5c0.8-0.2,1.9-0.3,3.1-0.3c1,0,1.9,0.1,2.5,0.4c0.7,0.3,1.2,0.7,1.6,1.2
	c0.4,0.5,0.7,1.2,0.9,1.9c0.2,0.8,0.3,1.6,0.3,2.5v7.4h-1.7v-6.9c0-0.9-0.1-1.7-0.2-2.4c-0.1-0.7-0.3-1.2-0.6-1.6
	c-0.3-0.4-0.7-0.7-1.2-0.9c-0.5-0.2-1.1-0.3-1.8-0.3c-0.8,0-1.5,0-2,0.1c-0.6,0.1-0.9,0.2-1.1,0.2v11.7h-1.7V40.3z"/>
<path class="st1" d="M327.4,39.6c0.9,0,1.6,0.1,2.2,0.4c0.6,0.2,1.1,0.6,1.5,1s0.7,1,0.8,1.6c0.2,0.6,0.3,1.3,0.3,2v8.4
	c-0.2,0.1-0.4,0.1-0.7,0.2c-0.3,0.1-0.7,0.1-1.1,0.2s-0.9,0.1-1.4,0.2c-0.5,0-1.1,0.1-1.6,0.1c-0.7,0-1.4-0.1-1.9-0.2
	c-0.6-0.2-1.1-0.4-1.5-0.7c-0.4-0.3-0.8-0.8-1-1.3c-0.2-0.5-0.4-1.2-0.4-1.9c0-0.7,0.1-1.3,0.4-1.9c0.3-0.5,0.7-0.9,1.2-1.3
	c0.5-0.3,1.1-0.6,1.8-0.7c0.7-0.2,1.4-0.2,2.2-0.2c0.2,0,0.5,0,0.8,0s0.5,0.1,0.8,0.1s0.5,0.1,0.6,0.1c0.2,0,0.3,0.1,0.4,0.1v-0.8
	c0-0.5,0-0.9-0.1-1.4c-0.1-0.4-0.2-0.8-0.5-1.2c-0.2-0.4-0.6-0.6-1-0.9c-0.4-0.2-1-0.3-1.7-0.3c-1,0-1.7,0.1-2.2,0.2
	c-0.5,0.1-0.8,0.2-1.1,0.3l-0.2-1.5c0.3-0.1,0.7-0.3,1.4-0.4C325.8,39.6,326.6,39.6,327.4,39.6z M327.6,52c0.7,0,1.2,0,1.7-0.1
	c0.5,0,0.9-0.1,1.2-0.2v-4.7c-0.2-0.1-0.5-0.2-0.9-0.3c-0.4-0.1-1-0.1-1.7-0.1c-0.4,0-0.8,0-1.3,0.1c-0.4,0.1-0.9,0.2-1.2,0.4
	c-0.4,0.2-0.7,0.5-0.9,0.8c-0.2,0.3-0.4,0.8-0.4,1.4c0,0.5,0.1,0.9,0.2,1.3c0.2,0.3,0.4,0.6,0.7,0.8c0.3,0.2,0.7,0.4,1.1,0.5
	C326.6,51.9,327.1,52,327.6,52z"/>
<path class="st1" d="M346.2,52.8c-0.5,0.2-1.1,0.3-1.9,0.5c-0.8,0.2-1.8,0.2-2.9,0.2c-1,0-1.9-0.2-2.7-0.5c-0.8-0.3-1.5-0.8-2.1-1.4
	c-0.6-0.6-1-1.3-1.3-2.2c-0.3-0.9-0.5-1.8-0.5-2.9c0-1,0.1-1.9,0.4-2.8c0.3-0.8,0.7-1.6,1.2-2.2s1.1-1.1,1.9-1.4
	c0.7-0.3,1.6-0.5,2.6-0.5c0.9,0,1.6,0.1,2.3,0.4c0.6,0.2,1.1,0.5,1.4,0.7v-7.2l1.7-0.3V52.8z M344.6,42.3c-0.2-0.1-0.3-0.2-0.6-0.4
	c-0.2-0.1-0.5-0.3-0.8-0.4c-0.3-0.1-0.6-0.2-1-0.3c-0.4-0.1-0.7-0.1-1.1-0.1c-0.8,0-1.5,0.1-2.1,0.4c-0.6,0.3-1,0.7-1.4,1.2
	c-0.3,0.5-0.6,1.1-0.7,1.7s-0.2,1.4-0.2,2.1c0,1.8,0.4,3.1,1.3,4c0.9,0.9,2,1.4,3.5,1.4c0.8,0,1.5,0,2-0.1c0.5-0.1,0.9-0.2,1.1-0.2
	V42.3z"/>
<path class="st1" d="M353.7,39.6c0.9,0,1.6,0.1,2.2,0.4c0.6,0.2,1.1,0.6,1.5,1s0.7,1,0.8,1.6c0.2,0.6,0.3,1.3,0.3,2v8.4
	c-0.2,0.1-0.4,0.1-0.7,0.2c-0.3,0.1-0.7,0.1-1.1,0.2c-0.4,0.1-0.9,0.1-1.4,0.2c-0.5,0-1.1,0.1-1.6,0.1c-0.7,0-1.4-0.1-1.9-0.2
	c-0.6-0.2-1.1-0.4-1.5-0.7s-0.8-0.8-1-1.3c-0.2-0.5-0.4-1.2-0.4-1.9c0-0.7,0.1-1.3,0.4-1.9c0.3-0.5,0.7-0.9,1.2-1.3
	c0.5-0.3,1.1-0.6,1.8-0.7c0.7-0.2,1.4-0.2,2.2-0.2c0.2,0,0.5,0,0.8,0c0.3,0,0.5,0.1,0.8,0.1c0.2,0,0.5,0.1,0.6,0.1
	c0.2,0,0.3,0.1,0.4,0.1v-0.8c0-0.5,0-0.9-0.1-1.4c-0.1-0.4-0.2-0.8-0.5-1.2c-0.2-0.4-0.6-0.6-1-0.9c-0.4-0.2-1-0.3-1.7-0.3
	c-1,0-1.7,0.1-2.2,0.2c-0.5,0.1-0.8,0.2-1.1,0.3l-0.2-1.5c0.3-0.1,0.7-0.3,1.4-0.4C352.1,39.6,352.8,39.6,353.7,39.6z M353.9,52
	c0.7,0,1.2,0,1.7-0.1c0.5,0,0.9-0.1,1.2-0.2v-4.7c-0.2-0.1-0.5-0.2-0.9-0.3c-0.4-0.1-1-0.1-1.7-0.1c-0.4,0-0.8,0-1.3,0.1
	c-0.4,0.1-0.9,0.2-1.2,0.4c-0.4,0.2-0.7,0.5-0.9,0.8c-0.2,0.3-0.4,0.8-0.4,1.4c0,0.5,0.1,0.9,0.2,1.3c0.2,0.3,0.4,0.6,0.7,0.8
	c0.3,0.2,0.7,0.4,1.1,0.5C352.8,51.9,353.3,52,353.9,52z"/>
</svg>
