<svg id="Layer_1" data-name="Layer 1" xmlns="http://www.w3.org/2000/svg" viewBox="0 0 628 80"><defs><style>.cls-1{fill:#d6ab00;}.cls-2{fill:#f1f2f2;}</style></defs><rect class="cls-1" x="348.01" y="11.33" width="1.35" height="40.39"/><path class="cls-2" d="M133.06,17.12a10.41,10.41,0,0,1-.73,4.07,7.49,7.49,0,0,1-2.06,2.88A8.77,8.77,0,0,1,127,25.78a15.14,15.14,0,0,1-4.31.57c-.73,0-1.57,0-2.54-.09a20.56,20.56,0,0,1-2.85-.37V8.38A24.13,24.13,0,0,1,120.23,8q1.51-.09,2.61-.09a15.56,15.56,0,0,1,4.19.52,8.57,8.57,0,0,1,3.23,1.63,7.16,7.16,0,0,1,2.07,2.85A10.71,10.71,0,0,1,133.06,17.12Zm-11.7,5.7.66,0,.9,0a6,6,0,0,0,4.5-1.53,5.89,5.89,0,0,0,1.46-4.23,5.9,5.9,0,0,0-1.4-4.28,5.91,5.91,0,0,0-4.43-1.45h-.86c-.29,0-.57,0-.83.06Z"/><path class="cls-2" d="M139.69,8.53a2.14,2.14,0,0,1-.69,1.68,2.46,2.46,0,0,1-3.24,0,2.14,2.14,0,0,1-.69-1.68,2.11,2.11,0,0,1,.69-1.67,2.46,2.46,0,0,1,3.24,0A2.11,2.11,0,0,1,139.69,8.53Zm-.36,17.59h-3.87V12.48h3.87Z"/><path class="cls-2" d="M153.85,24.41a6.53,6.53,0,0,1-1.7,5Q150.46,31,146.9,31a14,14,0,0,1-2.49-.22,14.58,14.58,0,0,1-2.3-.58l.67-3.24a11.45,11.45,0,0,0,1.91.57,11,11,0,0,0,2.27.21A3.15,3.15,0,0,0,149.3,27a2.6,2.6,0,0,0,.69-1.87v-.49a6.42,6.42,0,0,1-1.28.43,7.25,7.25,0,0,1-1.44.14,5.56,5.56,0,0,1-4.34-1.67,6.78,6.78,0,0,1-1.5-4.68,7.68,7.68,0,0,1,.47-2.74A5.69,5.69,0,0,1,143.26,14a6.27,6.27,0,0,1,2.19-1.37,8.62,8.62,0,0,1,2.93-.47q.7,0,1.44.06c.49,0,1,.1,1.47.17s.94.15,1.38.24.84.2,1.18.3Zm-8.48-5.55c0,2.16.88,3.24,2.62,3.24a3.7,3.7,0,0,0,1.12-.16,4,4,0,0,0,.88-.36V15.41a5.2,5.2,0,0,0-.67-.09,8.23,8.23,0,0,0-.91,0,2.64,2.64,0,0,0-2.28,1A4.13,4.13,0,0,0,145.37,18.86Z"/><path class="cls-2" d="M161,8.53a2.14,2.14,0,0,1-.69,1.68,2.4,2.4,0,0,1-1.62.61,2.36,2.36,0,0,1-1.62-.61,2.14,2.14,0,0,1-.69-1.68A2.11,2.11,0,0,1,157,6.86a2.32,2.32,0,0,1,1.62-.61,2.35,2.35,0,0,1,1.62.61A2.11,2.11,0,0,1,161,8.53Zm-.37,17.59h-3.86V12.48h3.86Z"/><path class="cls-2" d="M163.34,9.08l3.87-.62v4h4.64v3.21h-4.64v4.8a3.92,3.92,0,0,0,.42,2,1.85,1.85,0,0,0,1.73.72,7.18,7.18,0,0,0,1.28-.12,6.11,6.11,0,0,0,1.21-.32l.54,3a10.89,10.89,0,0,1-1.55.49,9,9,0,0,1-2.1.21,6.8,6.8,0,0,1-2.62-.43,4,4,0,0,1-1.66-1.19,4.33,4.33,0,0,1-.87-1.86,10.56,10.56,0,0,1-.25-2.41Z"/><path class="cls-2" d="M179.17,12.11a8.93,8.93,0,0,1,2.86.39,4.41,4.41,0,0,1,1.83,1.12,4.15,4.15,0,0,1,1,1.76,8.7,8.7,0,0,1,.28,2.31v8c-.55.12-1.32.26-2.3.43a22.82,22.82,0,0,1-3.58.24,11,11,0,0,1-2.4-.23,5.39,5.39,0,0,1-1.86-.76A3.56,3.56,0,0,1,173.78,24a4.73,4.73,0,0,1-.42-2.1,4,4,0,0,1,.48-2,3.71,3.71,0,0,1,1.29-1.32,5.56,5.56,0,0,1,1.84-.71,10.12,10.12,0,0,1,2.15-.22,13.32,13.32,0,0,1,1.34.06,6.48,6.48,0,0,1,.94.17v-.36a2.1,2.1,0,0,0-.59-1.58,2.89,2.89,0,0,0-2.08-.6,14,14,0,0,0-1.94.14,9,9,0,0,0-1.66.4l-.49-3.11c.22-.07.5-.14.84-.22s.7-.15,1.1-.21.82-.11,1.26-.15S178.72,12.11,179.17,12.11Zm.32,11.31q.57,0,1.08,0a7,7,0,0,0,.83-.07V20.39a6.28,6.28,0,0,0-.69-.11c-.32,0-.6-.05-.86-.05a6.76,6.76,0,0,0-1,.07,2.59,2.59,0,0,0-.84.24,1.46,1.46,0,0,0-.57.5,1.57,1.57,0,0,0,.4,2A3.44,3.44,0,0,0,179.49,23.42Z"/><path class="cls-2" d="M193.27,26.38a9.53,9.53,0,0,1-2.74-.37,4.09,4.09,0,0,1-1.66-.94,3.15,3.15,0,0,1-.83-1.48,7.83,7.83,0,0,1-.22-2v-15L191.68,6V20.85a5.32,5.32,0,0,0,.08.94,1.59,1.59,0,0,0,.3.7,1.61,1.61,0,0,0,.63.46,3.41,3.41,0,0,0,1.12.24Z"/><path class="cls-2" d="M206.47,7.94a11.11,11.11,0,0,1,6.19,1.44,5,5,0,0,1,2.16,4.47,5,5,0,0,1-.87,3.07,5.7,5.7,0,0,1-2.5,1.86c.36.45.74,1,1.14,1.54s.79,1.19,1.18,1.82.76,1.29,1.12,2,.71,1.35,1,2h-4.53l-1-1.79c-.34-.61-.68-1.19-1-1.77s-.71-1.11-1.05-1.62a16.54,16.54,0,0,0-1-1.38h-2v6.56H201.2V8.4A23.82,23.82,0,0,1,203.94,8C204.88,8,205.72,7.94,206.47,7.94Zm.23,3.45-.79,0-.66.05v4.88h1.14a6.92,6.92,0,0,0,3.27-.57,2.08,2.08,0,0,0,1-1.95,2,2,0,0,0-1-1.88A6.17,6.17,0,0,0,206.7,11.39Z"/><path class="cls-2" d="M216.63,19.4a8.21,8.21,0,0,1,.56-3.18A7,7,0,0,1,218.65,14a6.16,6.16,0,0,1,2.09-1.37,6.51,6.51,0,0,1,2.42-.47,6,6,0,0,1,4.59,1.78,7.3,7.3,0,0,1,1.69,5.23c0,.22,0,.47,0,.73s0,.51,0,.72H220.6a2.54,2.54,0,0,0,1.11,1.89,4.47,4.47,0,0,0,2.65.7,11,11,0,0,0,2.08-.19,8,8,0,0,0,1.68-.48l.52,3.14a7.17,7.17,0,0,1-.83.31c-.35.1-.73.19-1.16.27s-.88.14-1.36.19a11.75,11.75,0,0,1-1.45.08,8.7,8.7,0,0,1-3.21-.54,6.32,6.32,0,0,1-2.25-1.49,5.85,5.85,0,0,1-1.32-2.25A8.74,8.74,0,0,1,216.63,19.4Zm9.08-1.48a4.39,4.39,0,0,0-.17-1,2.75,2.75,0,0,0-.44-.83,2.25,2.25,0,0,0-.76-.59,2.39,2.39,0,0,0-1.13-.24,2.68,2.68,0,0,0-1.11.22,2.44,2.44,0,0,0-.78.59,2.49,2.49,0,0,0-.48.84,5.5,5.5,0,0,0-.24,1Z"/><path class="cls-2" d="M235.56,23.34a4.11,4.11,0,0,0,1.51-.2.82.82,0,0,0,.44-.81,1,1,0,0,0-.57-.82,11.71,11.71,0,0,0-1.74-.79,14.37,14.37,0,0,1-1.65-.7,4.86,4.86,0,0,1-1.26-.87,3.46,3.46,0,0,1-.8-1.2,4.49,4.49,0,0,1-.29-1.69,3.64,3.64,0,0,1,1.43-3,6.17,6.17,0,0,1,3.92-1.12,13.08,13.08,0,0,1,2.38.22,11.86,11.86,0,0,1,1.82.48l-.68,3c-.45-.15-.93-.29-1.46-.41a8.06,8.06,0,0,0-1.78-.18c-1.21,0-1.81.33-1.81,1a1.07,1.07,0,0,0,.07.41.94.94,0,0,0,.32.35,4,4,0,0,0,.63.37c.27.13.61.27,1,.43a15.42,15.42,0,0,1,2.1.93,5,5,0,0,1,1.31,1,3.11,3.11,0,0,1,.67,1.18,5.21,5.21,0,0,1,.19,1.5,3.46,3.46,0,0,1-1.51,3.06,7.58,7.58,0,0,1-4.29,1,12,12,0,0,1-4.7-.83l.65-3.14a12,12,0,0,0,2,.61A9.66,9.66,0,0,0,235.56,23.34Z"/><path class="cls-2" d="M242.74,19.4a8.4,8.4,0,0,1,.56-3.18A6.85,6.85,0,0,1,244.77,14a6.12,6.12,0,0,1,2.08-1.37,6.6,6.6,0,0,1,2.43-.47,6.06,6.06,0,0,1,4.59,1.78,7.34,7.34,0,0,1,1.68,5.23c0,.22,0,.47,0,.73s0,.51-.05.72h-8.77a2.58,2.58,0,0,0,1.12,1.89,4.42,4.42,0,0,0,2.64.7,11.13,11.13,0,0,0,2.09-.19,7.89,7.89,0,0,0,1.67-.48l.52,3.14a6.53,6.53,0,0,1-.83.31c-.35.1-.73.19-1.15.27s-.88.14-1.36.19a11.91,11.91,0,0,1-1.46.08,8.65,8.65,0,0,1-3.2-.54,6.37,6.37,0,0,1-2.26-1.49,6.12,6.12,0,0,1-1.32-2.25A9,9,0,0,1,242.74,19.4Zm9.08-1.48a3.87,3.87,0,0,0-.17-1,2.37,2.37,0,0,0-.44-.83,2.31,2.31,0,0,0-.75-.59,2.39,2.39,0,0,0-1.13-.24,2.68,2.68,0,0,0-1.11.22,2.24,2.24,0,0,0-.78.59A2.49,2.49,0,0,0,247,17a4.77,4.77,0,0,0-.25,1Z"/><path class="cls-2" d="M262.7,12.11a8.91,8.91,0,0,1,2.85.39,4.41,4.41,0,0,1,1.83,1.12,4,4,0,0,1,1,1.76,8.69,8.69,0,0,1,.29,2.31v8c-.55.12-1.32.26-2.31.43a22.73,22.73,0,0,1-3.58.24,11.11,11.11,0,0,1-2.4-.23,5.42,5.42,0,0,1-1.85-.76A3.48,3.48,0,0,1,257.31,24a4.73,4.73,0,0,1-.42-2.1,4,4,0,0,1,.48-2,3.77,3.77,0,0,1,1.28-1.32,5.62,5.62,0,0,1,1.85-.71,10.05,10.05,0,0,1,2.15-.22,13,13,0,0,1,1.33.06,6.66,6.66,0,0,1,.95.17v-.36a2.11,2.11,0,0,0-.6-1.58,2.84,2.84,0,0,0-2.07-.6,14,14,0,0,0-1.95.14,9,9,0,0,0-1.66.4l-.49-3.11.84-.22q.51-.12,1.11-.21c.39-.06.81-.11,1.25-.15S262.25,12.11,262.7,12.11ZM263,23.42c.38,0,.74,0,1.09,0a7.19,7.19,0,0,0,.83-.07V20.39a6.55,6.55,0,0,0-.7-.11c-.31,0-.6-.05-.86-.05a6.63,6.63,0,0,0-1,.07,2.59,2.59,0,0,0-.84.24,1.46,1.46,0,0,0-.57.5,1.57,1.57,0,0,0,.4,2A3.4,3.4,0,0,0,263,23.42Z"/><path class="cls-2" d="M279.64,15.9c-.34-.09-.75-.18-1.22-.27a7.13,7.13,0,0,0-1.5-.15,7.92,7.92,0,0,0-.87.07,5.2,5.2,0,0,0-.77.14V26.12h-3.86V13.2a24.71,24.71,0,0,1,2.45-.69,14.47,14.47,0,0,1,3.15-.32,7.27,7.27,0,0,1,.75,0l.89.1.88.16a4,4,0,0,1,.75.22Z"/><path class="cls-2" d="M280.78,19.3a8,8,0,0,1,.48-2.79,6.63,6.63,0,0,1,1.39-2.28,6.49,6.49,0,0,1,2.2-1.55,7.27,7.27,0,0,1,3-.57,9.44,9.44,0,0,1,2,.2,9.82,9.82,0,0,1,1.77.55L290.76,16a8.8,8.8,0,0,0-1.19-.36,5.91,5.91,0,0,0-1.45-.16,3.07,3.07,0,0,0-2.56,1.07,4.38,4.38,0,0,0-.84,2.8,4.5,4.5,0,0,0,.79,2.85,3.33,3.33,0,0,0,2.76,1,9.15,9.15,0,0,0,1.51-.13,6.19,6.19,0,0,0,1.48-.41l.54,3.16a8.44,8.44,0,0,1-1.69.49,10.9,10.9,0,0,1-2.23.21,8.23,8.23,0,0,1-3.21-.56,6,6,0,0,1-2.22-1.51,6,6,0,0,1-1.27-2.27A9.6,9.6,0,0,1,280.78,19.3Z"/><path class="cls-2" d="M293.64,26.12V6.61L297.5,6v6.54a7.61,7.61,0,0,1,1-.25,6.1,6.1,0,0,1,1.18-.11,7.31,7.31,0,0,1,2.76.45,4.34,4.34,0,0,1,1.77,1.28,5,5,0,0,1,.93,2,11.09,11.09,0,0,1,.27,2.55v7.7h-3.86V18.88a5.32,5.32,0,0,0-.48-2.64,1.92,1.92,0,0,0-1.78-.78,4.92,4.92,0,0,0-1,.09c-.31.06-.58.13-.82.19V26.12Z"/><path class="cls-2" d="M129.2,53.28c-.2-.63-.41-1.27-.64-1.93l-.69-2h-7c-.23.65-.45,1.31-.68,2s-.44,1.3-.64,1.92h-4.2q1-2.91,1.92-5.37T119,43.26c.58-1.45,1.15-2.83,1.71-4.13s1.15-2.58,1.76-3.83h3.83c.6,1.25,1.18,2.52,1.75,3.83s1.15,2.68,1.73,4.13,1.18,3,1.79,4.65,1.25,3.43,1.93,5.37Zm-4.86-13.91c-.09.27-.22.62-.39,1.07s-.38,1-.6,1.56-.47,1.23-.74,1.94-.56,1.45-.84,2.23h5.14c-.27-.78-.54-1.52-.8-2.23s-.5-1.36-.73-1.95-.44-1.11-.61-1.56S124.45,39.63,124.34,39.37Z"/><path class="cls-2" d="M140,53.54a9.51,9.51,0,0,1-2.73-.37,4,4,0,0,1-1.66-.94,3.15,3.15,0,0,1-.83-1.48,7.83,7.83,0,0,1-.22-2v-15l3.86-.62V48a5.12,5.12,0,0,0,.08.93,1.45,1.45,0,0,0,.93,1.17,3.43,3.43,0,0,0,1.12.23Z"/><path class="cls-2" d="M147.49,53.54a9.53,9.53,0,0,1-2.74-.37,4.09,4.09,0,0,1-1.66-.94,3.15,3.15,0,0,1-.83-1.48,7.83,7.83,0,0,1-.22-2v-15l3.87-.62V48a5.18,5.18,0,0,0,.07.93,1.63,1.63,0,0,0,.3.71,1.58,1.58,0,0,0,.64.46,3.36,3.36,0,0,0,1.11.23Z"/><path class="cls-2" d="M153.74,35.69a2.1,2.1,0,0,1-.69,1.67,2.46,2.46,0,0,1-3.24,0,2.37,2.37,0,0,1,0-3.34,2.46,2.46,0,0,1,3.24,0A2.11,2.11,0,0,1,153.74,35.69Zm-.36,17.59h-3.87V39.63h3.87Z"/><path class="cls-2" d="M161.16,39.27a9,9,0,0,1,2.86.39,4.3,4.3,0,0,1,1.82,1.12,4.06,4.06,0,0,1,1,1.76,8.7,8.7,0,0,1,.28,2.31v8q-.82.18-2.31.42a21.34,21.34,0,0,1-3.57.25,11.64,11.64,0,0,1-2.4-.23,5.21,5.21,0,0,1-1.86-.77,3.35,3.35,0,0,1-1.19-1.39,4.73,4.73,0,0,1-.42-2.1,4,4,0,0,1,.48-2,3.71,3.71,0,0,1,1.29-1.32A5.56,5.56,0,0,1,159,45a10.12,10.12,0,0,1,2.15-.22,13.32,13.32,0,0,1,1.34.06,5.35,5.35,0,0,1,.94.17v-.36a2.18,2.18,0,0,0-.59-1.59,2.94,2.94,0,0,0-2.08-.59,12.48,12.48,0,0,0-1.94.14,8.09,8.09,0,0,0-1.66.4l-.5-3.11c.23-.07.51-.14.85-.22s.7-.15,1.1-.21l1.26-.16C160.27,39.29,160.71,39.27,161.16,39.27Zm.31,11.31c.38,0,.75,0,1.09,0a7,7,0,0,0,.83-.07V47.54l-.7-.1c-.31,0-.59,0-.85,0a8.28,8.28,0,0,0-1,.06,2.86,2.86,0,0,0-.84.25,1.44,1.44,0,0,0-.57.49,1.38,1.38,0,0,0-.21.78,1.31,1.31,0,0,0,.61,1.26A3.43,3.43,0,0,0,161.47,50.58Z"/><path class="cls-2" d="M169.88,40.1a21.18,21.18,0,0,1,2.54-.53,20.27,20.27,0,0,1,3.27-.25,7.78,7.78,0,0,1,2.89.46,4.35,4.35,0,0,1,1.83,1.28,5,5,0,0,1,1,2,10.49,10.49,0,0,1,.29,2.54v7.71h-3.87V46a5.23,5.23,0,0,0-.49-2.65,2,2,0,0,0-1.84-.77c-.28,0-.57,0-.88,0s-.59.05-.83.09V53.28h-3.87Z"/><path class="cls-2" d="M183.72,46.46a8,8,0,0,1,.48-2.79,6.58,6.58,0,0,1,1.39-2.29,6.7,6.7,0,0,1,2.2-1.54,7.3,7.3,0,0,1,3-.57,8.92,8.92,0,0,1,2,.2,9.2,9.2,0,0,1,1.76.55l-.8,3.09a9,9,0,0,0-1.2-.36,5.85,5.85,0,0,0-1.45-.16,3,3,0,0,0-2.55,1.06,4.42,4.42,0,0,0-.85,2.81,4.6,4.6,0,0,0,.79,2.85,3.34,3.34,0,0,0,2.77,1,9,9,0,0,0,1.5-.13,6.07,6.07,0,0,0,1.48-.42l.54,3.17a9.27,9.27,0,0,1-1.68.49,11,11,0,0,1-2.23.21,8.43,8.43,0,0,1-3.22-.56,5.93,5.93,0,0,1-2.21-1.52,5.78,5.78,0,0,1-1.28-2.27A9.82,9.82,0,0,1,183.72,46.46Z"/><path class="cls-2" d="M195.68,46.56a8.21,8.21,0,0,1,.56-3.18,6.88,6.88,0,0,1,1.46-2.27,6.16,6.16,0,0,1,2.09-1.37,6.55,6.55,0,0,1,2.42-.47,6,6,0,0,1,4.59,1.78,7.27,7.27,0,0,1,1.69,5.22c0,.23,0,.47,0,.74s0,.51-.05.72h-8.76a2.54,2.54,0,0,0,1.11,1.89,4.47,4.47,0,0,0,2.65.7,11.21,11.21,0,0,0,2.09-.2,7.38,7.38,0,0,0,1.67-.47l.52,3.13a4.73,4.73,0,0,1-.83.31,9.89,9.89,0,0,1-1.16.28c-.42.08-.87.14-1.36.19a14.09,14.09,0,0,1-1.45.08,8.4,8.4,0,0,1-3.2-.55,6.24,6.24,0,0,1-2.26-1.49,5.81,5.81,0,0,1-1.32-2.24A8.74,8.74,0,0,1,195.68,46.56Zm9.08-1.48a4.39,4.39,0,0,0-.17-1,2.64,2.64,0,0,0-.44-.83,2.41,2.41,0,0,0-.76-.6,2.48,2.48,0,0,0-1.12-.23,2.54,2.54,0,0,0-1.12.22,2.41,2.41,0,0,0-.78.58,3.07,3.07,0,0,0-.48.85,5.5,5.5,0,0,0-.24,1Z"/><path class="cls-2" d="M227.94,46.58a8.7,8.7,0,0,1-.45,2.88,6.47,6.47,0,0,1-1.27,2.21,6,6,0,0,1-1.93,1.41,5.9,5.9,0,0,1-2.47.51,5.79,5.79,0,0,1-4.39-1.92,6.49,6.49,0,0,1-1.28-2.21,9.41,9.41,0,0,1,0-5.75,6.54,6.54,0,0,1,1.28-2.22,5.56,5.56,0,0,1,1.93-1.43,5.82,5.82,0,0,1,2.46-.5,5.9,5.9,0,0,1,2.47.5,5.75,5.75,0,0,1,1.93,1.43,6.52,6.52,0,0,1,1.27,2.22A8.68,8.68,0,0,1,227.94,46.58Zm-1.79,0a6.36,6.36,0,0,0-1.16-4,4.11,4.11,0,0,0-6.33,0,6.3,6.3,0,0,0-1.17,4,6.28,6.28,0,0,0,1.17,4,4.12,4.12,0,0,0,6.33,0A6.34,6.34,0,0,0,226.15,46.58Z"/><path class="cls-2" d="M235.65,33.15a7.82,7.82,0,0,1,1.78.17,3.48,3.48,0,0,1,.89.3L238,35.07a5.07,5.07,0,0,0-.85-.27,5.53,5.53,0,0,0-1.41-.15,3.21,3.21,0,0,0-2.56.91,4.51,4.51,0,0,0-.76,2.91v1.4h5.39v1.42h-5.39v12h-1.69V38.41a5.65,5.65,0,0,1,1.21-3.94A4.79,4.79,0,0,1,235.65,33.15Z"/><path class="cls-2" d="M252.66,53.67a8.18,8.18,0,0,1-3.22-.63,7.35,7.35,0,0,1-2.6-1.81,8.83,8.83,0,0,1-1.74-2.95,11.74,11.74,0,0,1-.63-4,10.87,10.87,0,0,1,.69-4A8.67,8.67,0,0,1,247,37.33a7.68,7.68,0,0,1,2.65-1.81,8.4,8.4,0,0,1,3.14-.61,12.84,12.84,0,0,1,1.84.13,10.49,10.49,0,0,1,1.45.33,9.42,9.42,0,0,1,1.06.39,4.15,4.15,0,0,1,.68.35l-.57,1.53a9.94,9.94,0,0,0-1.65-.77,8.14,8.14,0,0,0-5.42.2,5.78,5.78,0,0,0-2.11,1.6,7.18,7.18,0,0,0-1.29,2.47,11.14,11.14,0,0,0-.42,3.16,11.54,11.54,0,0,0,.42,3.23A7,7,0,0,0,248,50a5.6,5.6,0,0,0,2,1.56,6.66,6.66,0,0,0,2.76.54,10.67,10.67,0,0,0,2.87-.32,9,9,0,0,0,1.75-.66l.49,1.5a2.75,2.75,0,0,1-.62.3c-.3.11-.67.23-1.12.35a13,13,0,0,1-1.55.3A14.83,14.83,0,0,1,252.66,53.67Z"/><path class="cls-2" d="M264.4,39.56a5.93,5.93,0,0,1,2.24.37,3.88,3.88,0,0,1,1.49,1,4,4,0,0,1,.83,1.57,7.22,7.22,0,0,1,.26,2V53a5.45,5.45,0,0,1-.75.17l-1.14.2c-.43.07-.91.12-1.44.17s-1.07.06-1.62.06a8,8,0,0,1-2-.23,4.34,4.34,0,0,1-1.56-.74,3.48,3.48,0,0,1-1-1.3,4.49,4.49,0,0,1-.38-1.93,4,4,0,0,1,.41-1.87,3.58,3.58,0,0,1,1.17-1.28,5.27,5.27,0,0,1,1.79-.74,10.06,10.06,0,0,1,2.26-.23l.76,0,.78.11a6.19,6.19,0,0,1,.65.13,1.54,1.54,0,0,1,.38.12V44.8a8.74,8.74,0,0,0-.11-1.37,3,3,0,0,0-.45-1.19,2.61,2.61,0,0,0-1-.86,3.76,3.76,0,0,0-1.67-.32,8.6,8.6,0,0,0-2.21.21c-.48.14-.83.25-1.06.34l-.23-1.48a6.07,6.07,0,0,1,1.36-.39A11.7,11.7,0,0,1,264.4,39.56Zm.15,12.5c.66,0,1.24,0,1.73-.07a11.06,11.06,0,0,0,1.26-.17V47.1a6.73,6.73,0,0,0-.91-.27,8.48,8.48,0,0,0-1.71-.14,9.8,9.8,0,0,0-1.3.09,3.73,3.73,0,0,0-1.25.39,2.6,2.6,0,0,0-.93.81,2.4,2.4,0,0,0-.36,1.38,3,3,0,0,0,.24,1.27,2.11,2.11,0,0,0,.7.83,3.06,3.06,0,0,0,1.09.45A6.37,6.37,0,0,0,264.55,52.06Z"/><path class="cls-2" d="M272.61,40.33c.5-.13,1.18-.29,2-.46a15.41,15.41,0,0,1,3.12-.26,6.34,6.34,0,0,1,2.55.44,3.82,3.82,0,0,1,1.63,1.26,5,5,0,0,1,.87,1.95,11,11,0,0,1,.26,2.52v7.5h-1.68v-7a12.63,12.63,0,0,0-.2-2.41,4,4,0,0,0-.65-1.61,2.53,2.53,0,0,0-1.19-.89,5.44,5.44,0,0,0-1.85-.27,13.78,13.78,0,0,0-2.07.13,5.77,5.77,0,0,0-1.12.23V53.28h-1.69Z"/><path class="cls-2" d="M290.41,39.56a6,6,0,0,1,2.24.37,3.88,3.88,0,0,1,1.49,1,4,4,0,0,1,.83,1.57,7.22,7.22,0,0,1,.26,2V53a5.45,5.45,0,0,1-.75.17l-1.14.2c-.44.07-.92.12-1.44.17s-1.07.06-1.62.06a8,8,0,0,1-2-.23,4.34,4.34,0,0,1-1.56-.74,3.51,3.51,0,0,1-1-1.3,4.49,4.49,0,0,1-.37-1.93,4,4,0,0,1,.41-1.87,3.58,3.58,0,0,1,1.17-1.28,5.27,5.27,0,0,1,1.79-.74,10,10,0,0,1,2.26-.23l.76,0,.78.11a6.19,6.19,0,0,1,.65.13,1.43,1.43,0,0,1,.37.12V44.8a8.75,8.75,0,0,0-.1-1.37,3,3,0,0,0-.45-1.19,2.69,2.69,0,0,0-1-.86,3.76,3.76,0,0,0-1.67-.32,8.6,8.6,0,0,0-2.21.21c-.48.14-.84.25-1.06.34l-.23-1.48a5.91,5.91,0,0,1,1.36-.39A11.7,11.7,0,0,1,290.41,39.56Zm.15,12.5c.66,0,1.23,0,1.73-.07a10.55,10.55,0,0,0,1.25-.17V47.1a6.49,6.49,0,0,0-.9-.27,8.52,8.52,0,0,0-1.72-.14,9.77,9.77,0,0,0-1.29.09,3.73,3.73,0,0,0-1.25.39,2.6,2.6,0,0,0-.93.81,2.4,2.4,0,0,0-.36,1.38,3,3,0,0,0,.24,1.27,2.11,2.11,0,0,0,.7.83,3.06,3.06,0,0,0,1.09.45A6.37,6.37,0,0,0,290.56,52.06Z"/><path class="cls-2" d="M309.33,52.86a15.52,15.52,0,0,1-1.92.49,15.15,15.15,0,0,1-3,.24,7.24,7.24,0,0,1-2.69-.48,5.77,5.77,0,0,1-2.07-1.39,6.27,6.27,0,0,1-1.35-2.2,8.47,8.47,0,0,1-.48-2.94,9.63,9.63,0,0,1,.4-2.81,6.64,6.64,0,0,1,1.18-2.22,5.48,5.48,0,0,1,1.91-1.45,6,6,0,0,1,2.58-.52,6.41,6.41,0,0,1,2.3.38,6.23,6.23,0,0,1,1.41.71V33.46l1.69-.31ZM307.64,42.3a5.32,5.32,0,0,0-.58-.38,5.71,5.71,0,0,0-.82-.39,7,7,0,0,0-1-.3,5.38,5.38,0,0,0-1.14-.12,4.52,4.52,0,0,0-2.09.44,3.81,3.81,0,0,0-1.36,1.18,5.09,5.09,0,0,0-.76,1.74,9.61,9.61,0,0,0-.23,2.11A5.72,5.72,0,0,0,301,50.64a4.57,4.57,0,0,0,3.51,1.42,13.59,13.59,0,0,0,2-.12,7.44,7.44,0,0,0,1.15-.25Z"/><path class="cls-2" d="M316.84,39.56a5.93,5.93,0,0,1,2.24.37,3.84,3.84,0,0,1,1.5,1,4.15,4.15,0,0,1,.83,1.57,7.22,7.22,0,0,1,.26,2V53a6.06,6.06,0,0,1-.76.17l-1.14.2c-.43.07-.91.12-1.44.17s-1.06.06-1.62.06a8,8,0,0,1-2-.23,4.37,4.37,0,0,1-1.55-.74,3.51,3.51,0,0,1-1-1.3,4.49,4.49,0,0,1-.38-1.93,3.88,3.88,0,0,1,.42-1.87,3.5,3.5,0,0,1,1.17-1.28,5.19,5.19,0,0,1,1.79-.74,10,10,0,0,1,2.25-.23l.77,0,.78.11a6,6,0,0,1,.64.13,1.4,1.4,0,0,1,.38.12V44.8a10.15,10.15,0,0,0-.1-1.37,2.88,2.88,0,0,0-.46-1.19,2.58,2.58,0,0,0-1-.86,3.81,3.81,0,0,0-1.68-.32,8.51,8.51,0,0,0-2.2.21c-.48.14-.84.25-1.06.34l-.24-1.48a6.24,6.24,0,0,1,1.36-.39A11.85,11.85,0,0,1,316.84,39.56Zm.16,12.5c.65,0,1.23,0,1.72-.07a11.06,11.06,0,0,0,1.26-.17V47.1a6.3,6.3,0,0,0-.91-.27,8.34,8.34,0,0,0-1.71-.14,9.92,9.92,0,0,0-1.3.09,3.67,3.67,0,0,0-1.24.39,2.6,2.6,0,0,0-.93.81,2.32,2.32,0,0,0-.37,1.38,2.85,2.85,0,0,0,.25,1.27,2,2,0,0,0,.7.83,2.91,2.91,0,0,0,1.09.45A6.25,6.25,0,0,0,317,52.06Z"/><path class="cls-2" d="M387.87,26.12c-.2-.63-.42-1.27-.65-1.93l-.69-2h-7c-.22.65-.45,1.31-.68,2s-.44,1.3-.64,1.92H374q1-2.91,1.93-5.37c.6-1.64,1.2-3.19,1.78-4.64s1.15-2.83,1.72-4.14,1.15-2.58,1.75-3.82H385c.59,1.24,1.17,2.52,1.74,3.82s1.15,2.68,1.74,4.14,1.17,3,1.78,4.64,1.25,3.43,1.93,5.37ZM383,12.22l-.4,1.06c-.18.45-.37,1-.59,1.56l-.75,1.94L380.43,19h5.14c-.27-.78-.54-1.52-.8-2.23s-.5-1.36-.73-2-.44-1.11-.61-1.56Z"/><path class="cls-2" d="M398.71,26.38A9.53,9.53,0,0,1,396,26a4.09,4.09,0,0,1-1.66-.94,3.15,3.15,0,0,1-.83-1.48,7.83,7.83,0,0,1-.22-2v-15L397.13,6V20.85a5.37,5.37,0,0,0,.07.94,1.45,1.45,0,0,0,.94,1.16,3.34,3.34,0,0,0,1.11.24Z"/><path class="cls-2" d="M406.15,26.38a9.58,9.58,0,0,1-2.74-.37,4.09,4.09,0,0,1-1.66-.94,3.24,3.24,0,0,1-.83-1.48,8.33,8.33,0,0,1-.22-2v-15L404.57,6V20.85a4.51,4.51,0,0,0,.08.94,1.7,1.7,0,0,0,.29.7,1.58,1.58,0,0,0,.64.46,3.4,3.4,0,0,0,1.11.24Z"/><path class="cls-2" d="M412.4,8.53a2.16,2.16,0,0,1-.68,1.68,2.47,2.47,0,0,1-3.25,0,2.16,2.16,0,0,1-.68-1.68,2.14,2.14,0,0,1,.68-1.67,2.47,2.47,0,0,1,3.25,0A2.14,2.14,0,0,1,412.4,8.53ZM412,26.12h-3.86V12.48H412Z"/><path class="cls-2" d="M419.83,12.11a8.91,8.91,0,0,1,2.85.39,4.41,4.41,0,0,1,1.83,1.12,4.15,4.15,0,0,1,1,1.76,8.69,8.69,0,0,1,.29,2.31v8c-.56.12-1.33.26-2.31.43a22.82,22.82,0,0,1-3.58.24,11.11,11.11,0,0,1-2.4-.23,5.39,5.39,0,0,1-1.86-.76A3.64,3.64,0,0,1,414.43,24a4.74,4.74,0,0,1-.41-2.1,4,4,0,0,1,.48-2,3.68,3.68,0,0,1,1.28-1.32,5.65,5.65,0,0,1,1.84-.71,10.12,10.12,0,0,1,2.15-.22,13.18,13.18,0,0,1,1.34.06,6.93,6.93,0,0,1,.95.17v-.36a2.11,2.11,0,0,0-.6-1.58,2.88,2.88,0,0,0-2.07-.6,14,14,0,0,0-1.95.14,9,9,0,0,0-1.66.4l-.49-3.11c.22-.07.5-.14.84-.22s.7-.15,1.1-.21.82-.11,1.26-.15S419.38,12.11,419.83,12.11Zm.31,11.31c.38,0,.74,0,1.09,0a7.4,7.4,0,0,0,.83-.07V20.39a7,7,0,0,0-.7-.11c-.32,0-.6-.05-.86-.05a6.63,6.63,0,0,0-1,.07,2.65,2.65,0,0,0-.85.24,1.46,1.46,0,0,0-.57.5,1.57,1.57,0,0,0,.4,2A3.44,3.44,0,0,0,420.14,23.42Z"/><path class="cls-2" d="M428.55,12.94a22.36,22.36,0,0,1,2.54-.53,21.3,21.3,0,0,1,3.27-.24,8,8,0,0,1,2.89.45,4.25,4.25,0,0,1,1.82,1.28,5.2,5.2,0,0,1,1,2,11.06,11.06,0,0,1,.28,2.55v7.7h-3.86V18.88a5.17,5.17,0,0,0-.5-2.64,2,2,0,0,0-1.84-.78c-.28,0-.57,0-.88,0s-.59.05-.83.09V26.12h-3.86Z"/><path class="cls-2" d="M442.38,19.3a8,8,0,0,1,.48-2.79,6.79,6.79,0,0,1,1.39-2.28,6.63,6.63,0,0,1,2.21-1.55,7.25,7.25,0,0,1,3-.57,9.54,9.54,0,0,1,2,.2,9.72,9.72,0,0,1,1.76.55l-.8,3.09a8.8,8.8,0,0,0-1.19-.36,6,6,0,0,0-1.46-.16,3.05,3.05,0,0,0-2.55,1.07,4.38,4.38,0,0,0-.84,2.8,4.5,4.5,0,0,0,.79,2.85,3.32,3.32,0,0,0,2.76,1,9,9,0,0,0,1.5-.13,6.07,6.07,0,0,0,1.48-.41l.55,3.16a8.44,8.44,0,0,1-1.69.49,11,11,0,0,1-2.23.21,8.19,8.19,0,0,1-3.21-.56,6,6,0,0,1-2.22-1.51,5.83,5.83,0,0,1-1.27-2.27A9.6,9.6,0,0,1,442.38,19.3Z"/><path class="cls-2" d="M454.34,19.4a8.4,8.4,0,0,1,.56-3.18A7,7,0,0,1,456.36,14a6.26,6.26,0,0,1,2.09-1.37,6.6,6.6,0,0,1,2.43-.47,6.06,6.06,0,0,1,4.59,1.78,7.34,7.34,0,0,1,1.68,5.23c0,.22,0,.47,0,.73s0,.51-.05.72h-8.77a2.6,2.6,0,0,0,1.11,1.89,4.47,4.47,0,0,0,2.65.7,11.21,11.21,0,0,0,2.09-.19,7.89,7.89,0,0,0,1.67-.48l.52,3.14a6.53,6.53,0,0,1-.83.31c-.35.1-.73.19-1.15.27s-.88.14-1.37.19a11.75,11.75,0,0,1-1.45.08,8.65,8.65,0,0,1-3.2-.54,6.37,6.37,0,0,1-2.26-1.49,6,6,0,0,1-1.32-2.25A8.74,8.74,0,0,1,454.34,19.4Zm9.08-1.48a4.39,4.39,0,0,0-.17-1,2.55,2.55,0,0,0-.44-.83,2.31,2.31,0,0,0-.75-.59,2.42,2.42,0,0,0-1.13-.24,2.73,2.73,0,0,0-1.12.22,2.29,2.29,0,0,0-.77.59,2.49,2.49,0,0,0-.48.84,4.77,4.77,0,0,0-.25,1Z"/><path class="cls-2" d="M487.1,25.68q-.53.15-1.2.3c-.44.09-.92.17-1.41.24s-1,.13-1.5.17-1,.07-1.47.07a8.6,8.6,0,0,1-3-.5,6.16,6.16,0,0,1-2.23-1.41,6.34,6.34,0,0,1-1.39-2.23,8.78,8.78,0,0,1-.47-2.95,10,10,0,0,1,.41-3A6.53,6.53,0,0,1,476,14.11a5.2,5.2,0,0,1,1.91-1.43,6.52,6.52,0,0,1,2.58-.49,5.71,5.71,0,0,1,1.44.16,7.47,7.47,0,0,1,1.28.44V6.61L487.1,6Zm-8.74-6.49a4.75,4.75,0,0,0,.8,2.88,2.77,2.77,0,0,0,2.39,1.09c.34,0,.66,0,1,0a5.39,5.39,0,0,0,.72-.09V16a3.64,3.64,0,0,0-.94-.39,4.77,4.77,0,0,0-1.18-.15C479.27,15.46,478.36,16.7,478.36,19.19Z"/><path class="cls-2" d="M489.32,19.4a8.21,8.21,0,0,1,.56-3.18A7,7,0,0,1,491.34,14a6.16,6.16,0,0,1,2.09-1.37,6.55,6.55,0,0,1,2.42-.47,6,6,0,0,1,4.59,1.78,7.3,7.3,0,0,1,1.69,5.23c0,.22,0,.47,0,.73s0,.51-.05.72h-8.76a2.54,2.54,0,0,0,1.11,1.89,4.47,4.47,0,0,0,2.65.7,11,11,0,0,0,2.08-.19,7.83,7.83,0,0,0,1.68-.48l.52,3.14a7.17,7.17,0,0,1-.83.31c-.35.1-.73.19-1.16.27s-.88.14-1.36.19a11.75,11.75,0,0,1-1.45.08,8.61,8.61,0,0,1-3.2-.54,6.37,6.37,0,0,1-2.26-1.49,5.85,5.85,0,0,1-1.32-2.25A8.74,8.74,0,0,1,489.32,19.4Zm9.08-1.48a4.39,4.39,0,0,0-.17-1,2.55,2.55,0,0,0-.44-.83,2.25,2.25,0,0,0-.76-.59,2.38,2.38,0,0,0-1.12-.24,2.69,2.69,0,0,0-1.12.22,2.44,2.44,0,0,0-.78.59,2.49,2.49,0,0,0-.48.84,5.5,5.5,0,0,0-.24,1Z"/><path class="cls-2" d="M518.26,15.9c-.34-.09-.75-.18-1.22-.27a7.06,7.06,0,0,0-1.5-.15,7.92,7.92,0,0,0-.87.07,5.2,5.2,0,0,0-.77.14V26.12H510V13.2a24.71,24.71,0,0,1,2.45-.69,14.47,14.47,0,0,1,3.15-.32,7.6,7.6,0,0,1,.76,0l.88.1.88.16a4,4,0,0,1,.75.22Z"/><path class="cls-2" d="M519.42,19.4a8.4,8.4,0,0,1,.56-3.18A6.85,6.85,0,0,1,521.45,14a6.12,6.12,0,0,1,2.08-1.37,6.6,6.6,0,0,1,2.43-.47,6,6,0,0,1,4.59,1.78,7.34,7.34,0,0,1,1.69,5.23c0,.22,0,.47,0,.73s0,.51-.05.72h-8.77a2.58,2.58,0,0,0,1.12,1.89,4.44,4.44,0,0,0,2.64.7,11.13,11.13,0,0,0,2.09-.19,7.89,7.89,0,0,0,1.67-.48l.52,3.14a6.53,6.53,0,0,1-.83.31c-.34.1-.73.19-1.15.27s-.88.14-1.36.19a11.91,11.91,0,0,1-1.46.08,8.68,8.68,0,0,1-3.2-.54,6.37,6.37,0,0,1-2.26-1.49,6.12,6.12,0,0,1-1.32-2.25A9,9,0,0,1,519.42,19.4Zm9.08-1.48a3.87,3.87,0,0,0-.17-1,2.37,2.37,0,0,0-.44-.83,2.31,2.31,0,0,0-.75-.59A2.39,2.39,0,0,0,526,15.3a2.68,2.68,0,0,0-1.11.22,2.44,2.44,0,0,0-.78.59,2.49,2.49,0,0,0-.48.84,5.53,5.53,0,0,0-.25,1Z"/><path class="cls-2" d="M533.78,19.3a8,8,0,0,1,.48-2.79,6.76,6.76,0,0,1,1.38-2.28,6.63,6.63,0,0,1,2.21-1.55,7.27,7.27,0,0,1,3-.57,9.44,9.44,0,0,1,2,.2,9.82,9.82,0,0,1,1.77.55L543.76,16a8.8,8.8,0,0,0-1.19-.36,5.91,5.91,0,0,0-1.45-.16,3.07,3.07,0,0,0-2.56,1.07,4.38,4.38,0,0,0-.84,2.8,4.5,4.5,0,0,0,.79,2.85,3.33,3.33,0,0,0,2.76,1,9.15,9.15,0,0,0,1.51-.13,6.19,6.19,0,0,0,1.48-.41l.54,3.16a8.44,8.44,0,0,1-1.69.49,10.9,10.9,0,0,1-2.23.21,8.23,8.23,0,0,1-3.21-.56,6,6,0,0,1-2.22-1.51,6,6,0,0,1-1.27-2.27A9.6,9.6,0,0,1,533.78,19.3Z"/><path class="cls-2" d="M546.64,26.12V6.61L550.5,6v6.54a7.61,7.61,0,0,1,1-.25,6,6,0,0,1,1.18-.11,7.31,7.31,0,0,1,2.76.45,4.34,4.34,0,0,1,1.77,1.28,5,5,0,0,1,.93,2,11.09,11.09,0,0,1,.27,2.55v7.7h-3.86V18.88a5.32,5.32,0,0,0-.48-2.64,1.93,1.93,0,0,0-1.78-.78,4.92,4.92,0,0,0-1,.09c-.31.06-.58.13-.82.19V26.12Z"/><path class="cls-2" d="M560.48,19.4a8.41,8.41,0,0,1,.55-3.18A6.85,6.85,0,0,1,562.5,14a6.07,6.07,0,0,1,2.09-1.37,6.51,6.51,0,0,1,2.42-.47,6,6,0,0,1,4.59,1.78,7.3,7.3,0,0,1,1.69,5.23c0,.22,0,.47,0,.73s0,.51,0,.72h-8.77a2.58,2.58,0,0,0,1.12,1.89,4.46,4.46,0,0,0,2.64.7,11.13,11.13,0,0,0,2.09-.19,7.72,7.72,0,0,0,1.67-.48l.52,3.14a6,6,0,0,1-.83.31c-.34.1-.73.19-1.15.27s-.88.14-1.36.19a11.85,11.85,0,0,1-1.45.08,8.7,8.7,0,0,1-3.21-.54,6.24,6.24,0,0,1-2.25-1.49,6,6,0,0,1-1.33-2.25A9,9,0,0,1,560.48,19.4Zm9.07-1.48a3.46,3.46,0,0,0-.17-1,2.37,2.37,0,0,0-.44-.83,2.31,2.31,0,0,0-.75-.59,2.39,2.39,0,0,0-1.13-.24,2.68,2.68,0,0,0-1.11.22,2.44,2.44,0,0,0-.78.59,2.49,2.49,0,0,0-.48.84,6.58,6.58,0,0,0-.25,1Z"/><path class="cls-2" d="M583.77,15.9c-.34-.09-.75-.18-1.22-.27a7.13,7.13,0,0,0-1.5-.15,7.92,7.92,0,0,0-.87.07,5.2,5.2,0,0,0-.77.14V26.12h-3.86V13.2a24.71,24.71,0,0,1,2.45-.69,14.47,14.47,0,0,1,3.15-.32,7.27,7.27,0,0,1,.75,0l.89.1.88.16a4,4,0,0,1,.75.22Z"/><path class="cls-2" d="M584.91,19.3a8,8,0,0,1,.48-2.79,6.76,6.76,0,0,1,1.38-2.28A6.63,6.63,0,0,1,589,12.68a7.27,7.27,0,0,1,3-.57,9.44,9.44,0,0,1,2,.2,9.82,9.82,0,0,1,1.77.55L594.89,16a8.8,8.8,0,0,0-1.19-.36,5.91,5.91,0,0,0-1.45-.16,3.06,3.06,0,0,0-2.56,1.07,4.38,4.38,0,0,0-.84,2.8,4.5,4.5,0,0,0,.79,2.85,3.33,3.33,0,0,0,2.76,1,9.15,9.15,0,0,0,1.51-.13,6,6,0,0,0,1.47-.41l.55,3.16a8.44,8.44,0,0,1-1.69.49,10.9,10.9,0,0,1-2.23.21,8.23,8.23,0,0,1-3.21-.56,6,6,0,0,1-2.22-1.51,6,6,0,0,1-1.27-2.27A9.6,9.6,0,0,1,584.91,19.3Z"/><path class="cls-2" d="M597.77,26.12V6.61L601.63,6v6.54a7.61,7.61,0,0,1,1-.25,6,6,0,0,1,1.18-.11,7.31,7.31,0,0,1,2.76.45,4.24,4.24,0,0,1,1.76,1.28,4.87,4.87,0,0,1,.94,2,11.09,11.09,0,0,1,.27,2.55v7.7h-3.86V18.88a5.32,5.32,0,0,0-.48-2.64,1.93,1.93,0,0,0-1.78-.78,4.92,4.92,0,0,0-1,.09c-.31.06-.58.13-.82.19V26.12Z"/><path class="cls-2" d="M611.6,19.4a8.4,8.4,0,0,1,.56-3.18A6.85,6.85,0,0,1,613.63,14a6.07,6.07,0,0,1,2.09-1.37,6.51,6.51,0,0,1,2.42-.47,6,6,0,0,1,4.59,1.78,7.34,7.34,0,0,1,1.69,5.23c0,.22,0,.47,0,.73s0,.51,0,.72h-8.77a2.58,2.58,0,0,0,1.12,1.89,4.44,4.44,0,0,0,2.64.7,11.13,11.13,0,0,0,2.09-.19,7.89,7.89,0,0,0,1.67-.48l.52,3.14a6,6,0,0,1-.83.31c-.34.1-.73.19-1.15.27s-.88.14-1.36.19a11.91,11.91,0,0,1-1.46.08,8.68,8.68,0,0,1-3.2-.54,6.37,6.37,0,0,1-2.26-1.49A6.12,6.12,0,0,1,612,22.2,9,9,0,0,1,611.6,19.4Zm9.08-1.48a3.87,3.87,0,0,0-.17-1,2.37,2.37,0,0,0-.44-.83,2.31,2.31,0,0,0-.75-.59,2.39,2.39,0,0,0-1.13-.24,2.68,2.68,0,0,0-1.11.22,2.44,2.44,0,0,0-.78.59,2.49,2.49,0,0,0-.48.84,5.53,5.53,0,0,0-.25,1Z"/><path class="cls-2" d="M375.65,40.1a21.18,21.18,0,0,1,2.54-.53,20.27,20.27,0,0,1,3.27-.25,7.78,7.78,0,0,1,2.89.46,4.35,4.35,0,0,1,1.83,1.28,5,5,0,0,1,1,2,10.49,10.49,0,0,1,.29,2.54v7.71h-3.87V46a5.23,5.23,0,0,0-.49-2.65,2,2,0,0,0-1.84-.77c-.28,0-.57,0-.88,0s-.59.05-.83.09V53.28h-3.87Z"/><path class="cls-2" d="M401.76,52.81a20.36,20.36,0,0,1-2.54.53,21.47,21.47,0,0,1-3.27.25,7.77,7.77,0,0,1-2.89-.47,4.4,4.4,0,0,1-1.83-1.31,5.08,5.08,0,0,1-1-2,10.82,10.82,0,0,1-.28-2.57v-7.6h3.86v7.14a5.61,5.61,0,0,0,.49,2.69,2,2,0,0,0,1.85.83c.27,0,.57,0,.88,0s.58,0,.83-.09V39.63h3.86Z"/><path class="cls-2" d="M412.13,46a5.36,5.36,0,0,0-.48-2.65,1.78,1.78,0,0,0-1.64-.77,6.68,6.68,0,0,0-.76,0c-.25,0-.51.05-.75.09V53.28h-3.86V40.1c.33-.09.71-.18,1.15-.27s.91-.18,1.4-.26,1-.14,1.52-.18,1-.07,1.53-.07a6.41,6.41,0,0,1,2.4.38,5.64,5.64,0,0,1,1.52.89,6.73,6.73,0,0,1,1.9-.93,6.87,6.87,0,0,1,2-.34,6.65,6.65,0,0,1,2.68.46,4,4,0,0,1,1.67,1.28,4.83,4.83,0,0,1,.86,2,12.42,12.42,0,0,1,.23,2.54v7.71h-3.86V46a5.36,5.36,0,0,0-.48-2.65,1.8,1.8,0,0,0-1.65-.77,3.65,3.65,0,0,0-.87.15,3.79,3.79,0,0,0-.92.39,6.39,6.39,0,0,1,.24,1.26c0,.44.05.91.05,1.41v7.45h-3.87Z"/><path class="cls-2" d="M425.56,46.56a8.21,8.21,0,0,1,.56-3.18,6.88,6.88,0,0,1,1.46-2.27,6.16,6.16,0,0,1,2.09-1.37,6.55,6.55,0,0,1,2.42-.47,6,6,0,0,1,4.6,1.78,7.31,7.31,0,0,1,1.68,5.22c0,.23,0,.47,0,.74s0,.51,0,.72h-8.76a2.54,2.54,0,0,0,1.11,1.89,4.47,4.47,0,0,0,2.65.7,11.21,11.21,0,0,0,2.09-.2,7.38,7.38,0,0,0,1.67-.47l.52,3.13a4.73,4.73,0,0,1-.83.31,9.89,9.89,0,0,1-1.16.28c-.42.08-.88.14-1.36.19a14.09,14.09,0,0,1-1.45.08,8.49,8.49,0,0,1-3.21-.55,6.28,6.28,0,0,1-2.25-1.49A5.81,5.81,0,0,1,426,49.36,8.74,8.74,0,0,1,425.56,46.56Zm9.65-11.83-4.27,3.61-1.78-1.58,3.67-4.21Zm-.57,10.35a4.39,4.39,0,0,0-.17-1,2.64,2.64,0,0,0-.44-.83,2.41,2.41,0,0,0-.76-.6,2.48,2.48,0,0,0-1.12-.23,2.54,2.54,0,0,0-1.12.22,2.41,2.41,0,0,0-.78.58,3.07,3.07,0,0,0-.48.85,5.5,5.5,0,0,0-.24,1Z"/><path class="cls-2" d="M448.85,43.06c-.34-.09-.75-.18-1.21-.28a8,8,0,0,0-1.51-.14,6,6,0,0,0-.87.07,4.78,4.78,0,0,0-.76.14V53.28h-3.87V40.36a24.71,24.71,0,0,1,2.45-.69,14.6,14.6,0,0,1,3.15-.32,7.6,7.6,0,0,1,.76,0c.29,0,.58.06.88.1s.59.1.88.16a3.75,3.75,0,0,1,.75.22Z"/><path class="cls-2" d="M455.15,35.69a2.1,2.1,0,0,1-.69,1.67,2.35,2.35,0,0,1-1.62.61,2.32,2.32,0,0,1-1.62-.61,2.37,2.37,0,0,1,0-3.34,2.32,2.32,0,0,1,1.62-.61,2.35,2.35,0,0,1,1.62.61A2.11,2.11,0,0,1,455.15,35.69Zm-.37,17.59h-3.86V39.63h3.86Z"/><path class="cls-2" d="M456.94,46.46a8.4,8.4,0,0,1,.48-2.9A6.16,6.16,0,0,1,461,39.84a8.33,8.33,0,0,1,3-.52c.47,0,.95,0,1.47.07s1,.1,1.5.17,1,.15,1.41.24.85.2,1.2.3v18h-3.87V52.94a6.88,6.88,0,0,1-1.35.44,7.11,7.11,0,0,1-1.5.16,5.36,5.36,0,0,1-4.44-1.91A8,8,0,0,1,456.94,46.46Zm3.95.1c0,2.47.91,3.71,2.75,3.71a4.23,4.23,0,0,0,1.17-.16,3.12,3.12,0,0,0,.95-.39v-7a5.39,5.39,0,0,0-.72-.09c-.3,0-.62,0-1,0a2.8,2.8,0,0,0-2.39,1.07A4.67,4.67,0,0,0,460.89,46.56Z"/><path class="cls-2" d="M484.17,52.81a21,21,0,0,1-2.55.53,21.24,21.24,0,0,1-3.26.25,7.82,7.82,0,0,1-2.9-.47,4.37,4.37,0,0,1-1.82-1.31,5.08,5.08,0,0,1-1-2,10.31,10.31,0,0,1-.29-2.57v-7.6h3.86v7.14a5.47,5.47,0,0,0,.5,2.69,2,2,0,0,0,1.84.83c.28,0,.57,0,.88,0s.59,0,.83-.09V39.63h3.87Z"/><path class="cls-2" d="M486.39,46.56a8.41,8.41,0,0,1,.55-3.18,6.75,6.75,0,0,1,1.47-2.27,6.07,6.07,0,0,1,2.09-1.37,6.51,6.51,0,0,1,2.42-.47,6,6,0,0,1,4.59,1.78,7.27,7.27,0,0,1,1.69,5.22c0,.23,0,.47,0,.74s0,.51-.05.72h-8.77a2.58,2.58,0,0,0,1.12,1.89,4.46,4.46,0,0,0,2.64.7,11.13,11.13,0,0,0,2.09-.2,7.64,7.64,0,0,0,1.68-.47l.51,3.13a4.19,4.19,0,0,1-.83.31,9.7,9.7,0,0,1-1.15.28c-.42.08-.88.14-1.36.19a14.25,14.25,0,0,1-1.45.08,8.49,8.49,0,0,1-3.21-.55,6.11,6.11,0,0,1-2.25-1.49,6,6,0,0,1-1.33-2.24A9,9,0,0,1,486.39,46.56Zm9.07-1.48a3.46,3.46,0,0,0-.17-1,2.29,2.29,0,0,0-.44-.83,2.48,2.48,0,0,0-.75-.6,2.9,2.9,0,0,0-2.24,0,2.41,2.41,0,0,0-.78.58,2.64,2.64,0,0,0-.48.85,6.58,6.58,0,0,0-.25,1Z"/><path class="cls-2" d="M517.87,52.86a14.64,14.64,0,0,1-1.92.49,15,15,0,0,1-3,.24,7.2,7.2,0,0,1-2.69-.48,5.77,5.77,0,0,1-2.07-1.39,6.27,6.27,0,0,1-1.35-2.2,8.47,8.47,0,0,1-.48-2.94,9.31,9.31,0,0,1,.4-2.81A6.47,6.47,0,0,1,508,41.55a5.39,5.39,0,0,1,1.91-1.45,6,6,0,0,1,2.58-.52,6.56,6.56,0,0,1,3.71,1.09V33.46l1.68-.31ZM516.19,42.3a4.68,4.68,0,0,0-.59-.38,5.11,5.11,0,0,0-.81-.39,7.18,7.18,0,0,0-1-.3,5.24,5.24,0,0,0-1.14-.12,4.55,4.55,0,0,0-2.09.44,3.9,3.9,0,0,0-1.36,1.18,5.27,5.27,0,0,0-.75,1.74,9,9,0,0,0-.23,2.11,5.72,5.72,0,0,0,1.32,4.06,4.55,4.55,0,0,0,3.5,1.42,13.49,13.49,0,0,0,2-.12,7.35,7.35,0,0,0,1.16-.25Z"/><path class="cls-2" d="M531.67,52.81c-.5.14-1.18.29-2,.47a16.17,16.17,0,0,1-3.12.26,6.16,6.16,0,0,1-2.51-.45,4,4,0,0,1-1.64-1.24,5.08,5.08,0,0,1-.89-2,10.85,10.85,0,0,1-.27-2.51V39.87h1.68v7a11.9,11.9,0,0,0,.21,2.42,3.94,3.94,0,0,0,.67,1.59,2.66,2.66,0,0,0,1.21.88,5.25,5.25,0,0,0,1.8.27,15.67,15.67,0,0,0,2.08-.12,5.57,5.57,0,0,0,1.11-.24V39.87h1.69Z"/><path class="cls-2" d="M548.32,53.67a8.23,8.23,0,0,1-3.23-.63,7.31,7.31,0,0,1-2.59-1.81,8.51,8.51,0,0,1-1.74-2.95,11.74,11.74,0,0,1-.64-4,10.87,10.87,0,0,1,.69-4,8.85,8.85,0,0,1,1.83-2.94,7.55,7.55,0,0,1,2.64-1.81,8.44,8.44,0,0,1,3.14-.61,13,13,0,0,1,1.85.13,10.84,10.84,0,0,1,1.45.33,10.21,10.21,0,0,1,1.06.39,4.15,4.15,0,0,1,.68.35l-.58,1.53a10.19,10.19,0,0,0-1.64-.77,8.14,8.14,0,0,0-5.42.2,5.81,5.81,0,0,0-2.12,1.6,7,7,0,0,0-1.28,2.47A10.78,10.78,0,0,0,542,44.3a11.17,11.17,0,0,0,.43,3.23A6.69,6.69,0,0,0,543.68,50a5.56,5.56,0,0,0,2,1.56,6.73,6.73,0,0,0,2.76.54,10.62,10.62,0,0,0,2.87-.32,8.78,8.78,0,0,0,1.75-.66l.5,1.5a2.87,2.87,0,0,1-.63.3,11.59,11.59,0,0,1-1.11.35,12.76,12.76,0,0,1-1.56.3A14.67,14.67,0,0,1,548.32,53.67Z"/><path class="cls-2" d="M560.05,39.56a6,6,0,0,1,2.25.37,3.88,3.88,0,0,1,1.49,1,4.15,4.15,0,0,1,.83,1.57,7.22,7.22,0,0,1,.26,2V53a6.26,6.26,0,0,1-.75.17l-1.15.2c-.43.07-.91.12-1.44.17s-1.06.06-1.62.06a7.9,7.9,0,0,1-1.95-.23,4.34,4.34,0,0,1-1.56-.74,3.51,3.51,0,0,1-1-1.3,4.49,4.49,0,0,1-.37-1.93,3.88,3.88,0,0,1,.41-1.87,3.58,3.58,0,0,1,1.17-1.28,5.27,5.27,0,0,1,1.79-.74,10,10,0,0,1,2.25-.23l.77,0,.78.11c.25,0,.46.08.65.13a1.43,1.43,0,0,1,.37.12V44.8a8.75,8.75,0,0,0-.1-1.37,2.88,2.88,0,0,0-.46-1.19,2.58,2.58,0,0,0-1-.86,3.79,3.79,0,0,0-1.67-.32,8.55,8.55,0,0,0-2.21.21c-.48.14-.84.25-1.06.34l-.24-1.48a6.19,6.19,0,0,1,1.37-.39A11.66,11.66,0,0,1,560.05,39.56Zm.16,12.5c.66,0,1.23,0,1.72-.07a10.46,10.46,0,0,0,1.26-.17V47.1a6.3,6.3,0,0,0-.91-.27,8.34,8.34,0,0,0-1.71-.14,9.66,9.66,0,0,0-1.29.09,3.66,3.66,0,0,0-1.25.39,2.6,2.6,0,0,0-.93.81,2.32,2.32,0,0,0-.37,1.38,3,3,0,0,0,.25,1.27,2,2,0,0,0,.7.83,3,3,0,0,0,1.09.45A6.25,6.25,0,0,0,560.21,52.06Z"/><path class="cls-2" d="M568.27,40.33c.5-.13,1.17-.29,2-.46a15.31,15.31,0,0,1,3.11-.26,6.42,6.42,0,0,1,2.56.44,3.88,3.88,0,0,1,1.63,1.26,5,5,0,0,1,.87,1.95,11.61,11.61,0,0,1,.26,2.52v7.5H577v-7a12.72,12.72,0,0,0-.19-2.41,4.15,4.15,0,0,0-.65-1.61,2.53,2.53,0,0,0-1.19-.89,5.46,5.46,0,0,0-1.86-.27,13.73,13.73,0,0,0-2.06.13,5.93,5.93,0,0,0-1.13.23V53.28h-1.68Z"/><path class="cls-2" d="M586.06,39.56a6,6,0,0,1,2.25.37,3.88,3.88,0,0,1,1.49,1,4.15,4.15,0,0,1,.83,1.57,7.22,7.22,0,0,1,.26,2V53a6.06,6.06,0,0,1-.76.17l-1.14.2c-.43.07-.91.12-1.44.17s-1.07.06-1.62.06a8,8,0,0,1-2-.23,4.37,4.37,0,0,1-1.55-.74,3.51,3.51,0,0,1-1-1.3,4.49,4.49,0,0,1-.38-1.93,3.88,3.88,0,0,1,.42-1.87,3.41,3.41,0,0,1,1.17-1.28,5.19,5.19,0,0,1,1.79-.74,10,10,0,0,1,2.25-.23l.77,0,.77.11a6.19,6.19,0,0,1,.65.13,1.4,1.4,0,0,1,.38.12V44.8a10.15,10.15,0,0,0-.1-1.37,2.88,2.88,0,0,0-.46-1.19,2.58,2.58,0,0,0-1-.86,3.81,3.81,0,0,0-1.68-.32,8.51,8.51,0,0,0-2.2.21c-.49.14-.84.25-1.06.34l-.24-1.48a6.24,6.24,0,0,1,1.36-.39A11.85,11.85,0,0,1,586.06,39.56Zm.16,12.5c.65,0,1.23,0,1.72-.07a11.06,11.06,0,0,0,1.26-.17V47.1a6.3,6.3,0,0,0-.91-.27,8.34,8.34,0,0,0-1.71-.14,9.8,9.8,0,0,0-1.3.09,3.67,3.67,0,0,0-1.24.39,2.72,2.72,0,0,0-.94.81,2.4,2.4,0,0,0-.36,1.38,2.85,2.85,0,0,0,.25,1.27,2,2,0,0,0,.7.83,2.91,2.91,0,0,0,1.09.45A6.25,6.25,0,0,0,586.22,52.06Z"/><path class="cls-2" d="M605,52.86a14.64,14.64,0,0,1-1.92.49,15,15,0,0,1-2.95.24,7.24,7.24,0,0,1-2.69-.48,5.77,5.77,0,0,1-2.07-1.39,6.27,6.27,0,0,1-1.35-2.2,8.47,8.47,0,0,1-.48-2.94,9.31,9.31,0,0,1,.4-2.81,6.47,6.47,0,0,1,1.18-2.22A5.39,5.39,0,0,1,597,40.1a6,6,0,0,1,2.58-.52,6.56,6.56,0,0,1,3.71,1.09V33.46l1.68-.31ZM603.3,42.3a4.68,4.68,0,0,0-.59-.38,5.11,5.11,0,0,0-.81-.39,7.18,7.18,0,0,0-1-.3,5.24,5.24,0,0,0-1.14-.12,4.48,4.48,0,0,0-2.08.44,3.84,3.84,0,0,0-1.37,1.18,5.27,5.27,0,0,0-.75,1.74,9,9,0,0,0-.23,2.11,5.72,5.72,0,0,0,1.32,4.06,4.55,4.55,0,0,0,3.5,1.42,13.49,13.49,0,0,0,2-.12,7.35,7.35,0,0,0,1.16-.25Z"/><path class="cls-2" d="M612.5,39.56a5.93,5.93,0,0,1,2.24.37,3.88,3.88,0,0,1,1.49,1,4,4,0,0,1,.83,1.57,7.22,7.22,0,0,1,.26,2V53a5.45,5.45,0,0,1-.75.17l-1.14.2c-.43.07-.91.12-1.44.17s-1.07.06-1.62.06a8,8,0,0,1-2-.23,4.34,4.34,0,0,1-1.56-.74,3.48,3.48,0,0,1-1-1.3,4.34,4.34,0,0,1-.38-1.93,3.88,3.88,0,0,1,.42-1.87A3.47,3.47,0,0,1,609,46.21a5.27,5.27,0,0,1,1.79-.74,10,10,0,0,1,2.26-.23l.76,0,.78.11a6.19,6.19,0,0,1,.65.13,1.54,1.54,0,0,1,.38.12V44.8a8.74,8.74,0,0,0-.11-1.37,3,3,0,0,0-.45-1.19,2.61,2.61,0,0,0-1-.86,3.76,3.76,0,0,0-1.67-.32,8.6,8.6,0,0,0-2.21.21c-.48.14-.83.25-1.06.34l-.23-1.48a6.07,6.07,0,0,1,1.36-.39A11.7,11.7,0,0,1,612.5,39.56Zm.15,12.5c.66,0,1.23,0,1.73-.07a11.06,11.06,0,0,0,1.26-.17V47.1a6.73,6.73,0,0,0-.91-.27,8.48,8.48,0,0,0-1.71-.14,9.8,9.8,0,0,0-1.3.09,3.73,3.73,0,0,0-1.25.39,2.6,2.6,0,0,0-.93.81,2.4,2.4,0,0,0-.36,1.38,3,3,0,0,0,.24,1.27,2.11,2.11,0,0,0,.7.83,3.06,3.06,0,0,0,1.09.45A6.37,6.37,0,0,0,612.65,52.06Z"/><path class="cls-1" d="M72.69,2.26H3.58L14.64,8.68,51.46,29.91,72.67,66.69l6.42,11V2.26Zm0,32.52L56.14,25.23,46.58,8.68H72.67ZM27.47,8.68H39.22l5.86,10.17ZM62.52,36.29l10.15,5.85V53.86Z"/></svg>